G04 #@! TF.FileFunction,Copper,L1,Top,Signal*
%FSLAX46Y46*%
G04 Gerber Fmt 4.6, Leading zero omitted, Abs format (unit mm)*
G04 Created by KiCad (PCBNEW 4.0.6) date Tuesday, 22. January 2019 19:52:39*
%MOMM*%
%LPD*%
G01*
G04 APERTURE LIST*
%ADD10C,0.100000*%
%ADD11R,1.100000X1.800000*%
%ADD12C,4.064000*%
%ADD13R,1.000000X2.510000*%
%ADD14C,1.524000*%
%ADD15R,0.700000X1.300000*%
%ADD16R,1.550000X0.600000*%
%ADD17R,1.000000X1.250000*%
%ADD18R,1.300000X0.700000*%
%ADD19C,0.700000*%
%ADD20C,0.600000*%
%ADD21C,0.400000*%
%ADD22C,0.250000*%
%ADD23C,0.254000*%
G04 APERTURE END LIST*
D10*
D11*
X207031200Y-70966400D03*
X207031200Y-77166400D03*
X203331200Y-70966400D03*
X203331200Y-77166400D03*
D12*
X181654800Y-42818400D03*
X212654800Y-42818400D03*
X181654800Y-73818400D03*
X212654800Y-73818400D03*
D13*
X190246000Y-78159800D03*
X195326000Y-78159800D03*
X200406000Y-78159800D03*
X187706000Y-74849800D03*
X192786000Y-74849800D03*
X197866000Y-74849800D03*
X190195200Y-73333800D03*
X187655200Y-70023800D03*
X192735200Y-70023800D03*
D14*
X182302400Y-55818400D03*
X182302400Y-60818400D03*
X211702400Y-50618400D03*
X211702400Y-66018400D03*
D15*
X203134000Y-41503600D03*
X201234000Y-41503600D03*
X206232800Y-41503600D03*
X204332800Y-41503600D03*
D16*
X206535000Y-47117000D03*
X206535000Y-45847000D03*
X206535000Y-44577000D03*
X206535000Y-43307000D03*
X201135000Y-43307000D03*
X201135000Y-44577000D03*
X201135000Y-45847000D03*
X201135000Y-47117000D03*
D15*
X208219000Y-47040800D03*
X210119000Y-47040800D03*
D17*
X213547200Y-47040800D03*
X211547200Y-47040800D03*
D18*
X201091800Y-72349400D03*
X201091800Y-70449400D03*
D13*
X194106800Y-46583600D03*
X189026800Y-46583600D03*
X196646800Y-46583600D03*
X191566800Y-46583600D03*
D19*
X214528400Y-47548800D03*
X202184000Y-73202800D03*
X207060800Y-41503600D03*
X186436000Y-70053200D03*
X199136000Y-78181200D03*
D20*
X204787500Y-39624000D03*
X190246000Y-55473600D03*
X202996800Y-60909200D03*
X191719200Y-66903600D03*
X213207600Y-58115200D03*
X209753200Y-53949600D03*
D19*
X216204800Y-51790600D03*
X199961500Y-44577000D03*
D20*
X198018400Y-68884800D03*
X198120000Y-70815200D03*
X202575142Y-66735942D03*
X202590400Y-62890400D03*
D19*
X200304400Y-39725600D03*
X198577200Y-40182800D03*
X194919600Y-39827200D03*
X193497200Y-39928800D03*
D20*
X187642500Y-49974500D03*
D21*
X213547200Y-47040800D02*
X214020400Y-47040800D01*
X214020400Y-47040800D02*
X214528400Y-47548800D01*
X201168000Y-72374800D02*
X201356000Y-72374800D01*
X201356000Y-72374800D02*
X202184000Y-73202800D01*
X206535000Y-47117000D02*
X208142800Y-47117000D01*
X208142800Y-47117000D02*
X208219000Y-47040800D01*
X206232800Y-41503600D02*
X206232800Y-42910800D01*
X206232800Y-42910800D02*
X206629000Y-43307000D01*
X206629000Y-47117000D02*
X206057500Y-47117000D01*
X206057500Y-47117000D02*
X205486000Y-46545500D01*
X205486000Y-46545500D02*
X205486000Y-43815000D01*
X205486000Y-43815000D02*
X205994000Y-43307000D01*
X205994000Y-43307000D02*
X206629000Y-43307000D01*
X206232800Y-41503600D02*
X207060800Y-41503600D01*
X187655200Y-70023800D02*
X186465400Y-70023800D01*
X186465400Y-70023800D02*
X186436000Y-70053200D01*
X200406000Y-78159800D02*
X199157400Y-78159800D01*
X199157400Y-78159800D02*
X199136000Y-78181200D01*
X199974200Y-45847000D02*
X201135000Y-45847000D01*
X199440800Y-46380400D02*
X199974200Y-45847000D01*
X199440800Y-47853600D02*
X199440800Y-46380400D01*
X200355200Y-48768000D02*
X199440800Y-47853600D01*
X215392000Y-48768000D02*
X200355200Y-48768000D01*
X216179400Y-49555400D02*
X215392000Y-48768000D01*
X216179400Y-51765200D02*
X216179400Y-49555400D01*
X216204800Y-51790600D02*
X216179400Y-51765200D01*
X199961500Y-44577000D02*
X201041000Y-44577000D01*
X201041000Y-44577000D02*
X201041000Y-45847000D01*
D22*
X197494999Y-69459001D02*
X198018400Y-68935600D01*
X198018400Y-68935600D02*
X198018400Y-68884800D01*
X197494999Y-69509801D02*
X197494999Y-69459001D01*
X197319195Y-70979595D02*
X197494999Y-70803791D01*
X197494999Y-70803791D02*
X197494999Y-69509801D01*
X195998395Y-72300395D02*
X197319195Y-70979595D01*
X192786000Y-74849800D02*
X193448990Y-74849800D01*
X193448990Y-74849800D02*
X195998395Y-72300395D01*
X195173600Y-73761600D02*
X195665401Y-73269799D01*
X195665401Y-73269799D02*
X198120000Y-70815200D01*
X195173600Y-75438000D02*
X195173600Y-73761600D01*
X192451800Y-78159800D02*
X195173600Y-75438000D01*
X190246000Y-78159800D02*
X192451800Y-78159800D01*
X202575142Y-66735942D02*
X201168000Y-68143084D01*
X201168000Y-68143084D02*
X201168000Y-70474800D01*
X203331200Y-70966400D02*
X201659600Y-70966400D01*
X201659600Y-70966400D02*
X201168000Y-70474800D01*
X202590400Y-63957200D02*
X202590400Y-62890400D01*
X202590400Y-65836800D02*
X202590400Y-63957200D01*
X200863200Y-67564000D02*
X202590400Y-65836800D01*
X197459600Y-67564000D02*
X200863200Y-67564000D01*
X197044989Y-67978611D02*
X197459600Y-67564000D01*
X195548386Y-72113994D02*
X197044989Y-70617391D01*
X197044989Y-70617391D02*
X197044989Y-67978611D01*
X191431800Y-72847200D02*
X194815180Y-72847200D01*
X194815180Y-72847200D02*
X195548386Y-72113994D01*
X190195200Y-73333800D02*
X190945200Y-73333800D01*
X190945200Y-73333800D02*
X191431800Y-72847200D01*
D21*
X196646800Y-46583600D02*
X196646800Y-43383200D01*
X196646800Y-43383200D02*
X200304400Y-39725600D01*
X194106800Y-46583600D02*
X194106800Y-44653200D01*
X194106800Y-44653200D02*
X198577200Y-40182800D01*
X191566800Y-43180000D02*
X194919600Y-39827200D01*
X191566800Y-46583600D02*
X191566800Y-43180000D01*
X193497200Y-40030400D02*
X193497200Y-39928800D01*
X189026800Y-44500800D02*
X193497200Y-40030400D01*
X189026800Y-46583600D02*
X189026800Y-44500800D01*
X206629000Y-45847000D02*
X214363300Y-45847000D01*
X217233500Y-60487300D02*
X211702400Y-66018400D01*
X217233500Y-48717200D02*
X217233500Y-60487300D01*
X214363300Y-45847000D02*
X217233500Y-48717200D01*
X206629000Y-44577000D02*
X206629000Y-45847000D01*
D22*
X203682600Y-40853400D02*
X203682600Y-40955000D01*
X203682600Y-40955000D02*
X203134000Y-41503600D01*
X198564500Y-43116500D02*
X198564500Y-42583100D01*
X203682600Y-40853400D02*
X204332800Y-41503600D01*
X203682600Y-40487600D02*
X203682600Y-40853400D01*
X203657200Y-40462200D02*
X203682600Y-40487600D01*
X200685400Y-40462200D02*
X203657200Y-40462200D01*
X198564500Y-42583100D02*
X200685400Y-40462200D01*
X198564500Y-43942000D02*
X198564500Y-43116500D01*
X187642500Y-49974500D02*
X197167500Y-49974500D01*
X197167500Y-49974500D02*
X198564500Y-48577500D01*
X198564500Y-48577500D02*
X198564500Y-43942000D01*
X204332800Y-41503600D02*
X204332800Y-41620400D01*
X211547200Y-47040800D02*
X210119000Y-47040800D01*
X210119000Y-47040800D02*
X209981800Y-47040800D01*
X209981800Y-47040800D02*
X208889600Y-48133000D01*
X208889600Y-48133000D02*
X202151000Y-48133000D01*
X202151000Y-48133000D02*
X201135000Y-47117000D01*
X201135000Y-47117000D02*
X201828400Y-47117000D01*
X201828400Y-47117000D02*
X202438000Y-46507400D01*
X202438000Y-46507400D02*
X202438000Y-42707600D01*
X202438000Y-42707600D02*
X201234000Y-41503600D01*
X201041000Y-47117000D02*
X201803000Y-47117000D01*
D23*
G36*
X217539500Y-47842332D02*
X214953734Y-45256566D01*
X214934380Y-45243634D01*
X214682841Y-45075561D01*
X214363300Y-45012000D01*
X214232372Y-45012000D01*
X214914455Y-44331107D01*
X215321336Y-43351227D01*
X215322262Y-42290228D01*
X214917091Y-41309639D01*
X214167507Y-40558745D01*
X213187627Y-40151864D01*
X212126628Y-40150938D01*
X211146039Y-40556109D01*
X210395145Y-41305693D01*
X209988264Y-42285573D01*
X209987338Y-43346572D01*
X210392509Y-44327161D01*
X211076153Y-45012000D01*
X207930102Y-45012000D01*
X207957440Y-44877000D01*
X207957440Y-44277000D01*
X207913162Y-44041683D01*
X207849322Y-43942472D01*
X207906431Y-43858890D01*
X207957440Y-43607000D01*
X207957440Y-43007000D01*
X207913162Y-42771683D01*
X207774090Y-42555559D01*
X207561890Y-42410569D01*
X207483533Y-42394701D01*
X207618029Y-42339129D01*
X207895355Y-42062286D01*
X208045628Y-41700388D01*
X208045970Y-41308531D01*
X207896329Y-40946371D01*
X207619486Y-40669045D01*
X207257588Y-40518772D01*
X207121852Y-40518654D01*
X207046890Y-40402159D01*
X206834690Y-40257169D01*
X206582800Y-40206160D01*
X205882800Y-40206160D01*
X205647483Y-40250438D01*
X205431359Y-40389510D01*
X205286369Y-40601710D01*
X205283719Y-40614797D01*
X205146890Y-40402159D01*
X204934690Y-40257169D01*
X204682800Y-40206160D01*
X204386618Y-40206160D01*
X204384748Y-40196761D01*
X204220001Y-39950199D01*
X204194601Y-39924799D01*
X203948039Y-39760052D01*
X203657200Y-39702200D01*
X201289420Y-39702200D01*
X201289570Y-39530531D01*
X201139929Y-39168371D01*
X200863086Y-38891045D01*
X200501188Y-38740772D01*
X200109331Y-38740430D01*
X199747171Y-38890071D01*
X199469845Y-39166914D01*
X199319572Y-39528812D01*
X199319571Y-39529561D01*
X199318227Y-39530905D01*
X199135886Y-39348245D01*
X198773988Y-39197972D01*
X198382131Y-39197630D01*
X198019971Y-39347271D01*
X197742645Y-39624114D01*
X197592372Y-39986012D01*
X197592371Y-39986761D01*
X193516366Y-44062766D01*
X193335361Y-44333659D01*
X193271800Y-44653200D01*
X193271800Y-44789582D01*
X193155359Y-44864510D01*
X193010369Y-45076710D01*
X192959360Y-45328600D01*
X192959360Y-47838600D01*
X193003638Y-48073917D01*
X193142710Y-48290041D01*
X193354910Y-48435031D01*
X193606800Y-48486040D01*
X194606800Y-48486040D01*
X194842117Y-48441762D01*
X195058241Y-48302690D01*
X195203231Y-48090490D01*
X195254240Y-47838600D01*
X195254240Y-45328600D01*
X195209962Y-45093283D01*
X195070890Y-44877159D01*
X195066624Y-44874244D01*
X195811800Y-44129068D01*
X195811800Y-44789582D01*
X195695359Y-44864510D01*
X195550369Y-45076710D01*
X195499360Y-45328600D01*
X195499360Y-47838600D01*
X195543638Y-48073917D01*
X195682710Y-48290041D01*
X195894910Y-48435031D01*
X196146800Y-48486040D01*
X197146800Y-48486040D01*
X197382117Y-48441762D01*
X197598241Y-48302690D01*
X197743231Y-48090490D01*
X197794240Y-47838600D01*
X197794240Y-45328600D01*
X197749962Y-45093283D01*
X197610890Y-44877159D01*
X197481800Y-44788956D01*
X197481800Y-43729068D01*
X197804500Y-43406368D01*
X197804500Y-48262698D01*
X196852698Y-49214500D01*
X188204963Y-49214500D01*
X188172827Y-49182308D01*
X187829299Y-49039662D01*
X187457333Y-49039338D01*
X187113557Y-49181383D01*
X186850308Y-49444173D01*
X186707662Y-49787701D01*
X186707338Y-50159667D01*
X186849383Y-50503443D01*
X187112173Y-50766692D01*
X187455701Y-50909338D01*
X187827667Y-50909662D01*
X188171443Y-50767617D01*
X188204618Y-50734500D01*
X197167500Y-50734500D01*
X197458339Y-50676648D01*
X197704901Y-50511901D01*
X199101901Y-49114901D01*
X199266648Y-48868340D01*
X199267979Y-48861647D01*
X199764766Y-49358434D01*
X200035659Y-49539439D01*
X200355200Y-49603000D01*
X210742191Y-49603000D01*
X210518771Y-49826030D01*
X210305643Y-50339300D01*
X210305158Y-50895061D01*
X210517390Y-51408703D01*
X210910030Y-51802029D01*
X211423300Y-52015157D01*
X211979061Y-52015642D01*
X212492703Y-51803410D01*
X212886029Y-51410770D01*
X213099157Y-50897500D01*
X213099642Y-50341739D01*
X212887410Y-49828097D01*
X212662706Y-49603000D01*
X215046132Y-49603000D01*
X215344400Y-49901268D01*
X215344400Y-51294156D01*
X215219972Y-51593812D01*
X215219630Y-51985669D01*
X215369271Y-52347829D01*
X215646114Y-52625155D01*
X216008012Y-52775428D01*
X216398500Y-52775769D01*
X216398500Y-60141432D01*
X211918344Y-64621588D01*
X211425739Y-64621158D01*
X210912097Y-64833390D01*
X210518771Y-65226030D01*
X210305643Y-65739300D01*
X210305158Y-66295061D01*
X210517390Y-66808703D01*
X210910030Y-67202029D01*
X211423300Y-67415157D01*
X211979061Y-67415642D01*
X212492703Y-67203410D01*
X212886029Y-66810770D01*
X213099157Y-66297500D01*
X213099589Y-65802079D01*
X217539500Y-61362168D01*
X217539500Y-78855500D01*
X201553440Y-78855500D01*
X201553440Y-76904800D01*
X201509162Y-76669483D01*
X201370090Y-76453359D01*
X201157890Y-76308369D01*
X200950641Y-76266400D01*
X202133760Y-76266400D01*
X202133760Y-78066400D01*
X202178038Y-78301717D01*
X202317110Y-78517841D01*
X202529310Y-78662831D01*
X202781200Y-78713840D01*
X203881200Y-78713840D01*
X204116517Y-78669562D01*
X204332641Y-78530490D01*
X204477631Y-78318290D01*
X204528640Y-78066400D01*
X204528640Y-77452150D01*
X205846200Y-77452150D01*
X205846200Y-78192709D01*
X205942873Y-78426098D01*
X206121501Y-78604727D01*
X206354890Y-78701400D01*
X206745450Y-78701400D01*
X206904200Y-78542650D01*
X206904200Y-77293400D01*
X207158200Y-77293400D01*
X207158200Y-78542650D01*
X207316950Y-78701400D01*
X207707510Y-78701400D01*
X207940899Y-78604727D01*
X208119527Y-78426098D01*
X208216200Y-78192709D01*
X208216200Y-77452150D01*
X208057450Y-77293400D01*
X207158200Y-77293400D01*
X206904200Y-77293400D01*
X206004950Y-77293400D01*
X205846200Y-77452150D01*
X204528640Y-77452150D01*
X204528640Y-76266400D01*
X204504874Y-76140091D01*
X205846200Y-76140091D01*
X205846200Y-76880650D01*
X206004950Y-77039400D01*
X206904200Y-77039400D01*
X206904200Y-75790150D01*
X207158200Y-75790150D01*
X207158200Y-77039400D01*
X208057450Y-77039400D01*
X208216200Y-76880650D01*
X208216200Y-76140091D01*
X208119527Y-75906702D01*
X207940899Y-75728073D01*
X207707510Y-75631400D01*
X207316950Y-75631400D01*
X207158200Y-75790150D01*
X206904200Y-75790150D01*
X206745450Y-75631400D01*
X206354890Y-75631400D01*
X206121501Y-75728073D01*
X205942873Y-75906702D01*
X205846200Y-76140091D01*
X204504874Y-76140091D01*
X204484362Y-76031083D01*
X204345290Y-75814959D01*
X204133090Y-75669969D01*
X203881200Y-75618960D01*
X202781200Y-75618960D01*
X202545883Y-75663238D01*
X202329759Y-75802310D01*
X202184769Y-76014510D01*
X202133760Y-76266400D01*
X200950641Y-76266400D01*
X200906000Y-76257360D01*
X199906000Y-76257360D01*
X199670683Y-76301638D01*
X199454559Y-76440710D01*
X199309569Y-76652910D01*
X199258560Y-76904800D01*
X199258560Y-77196307D01*
X198940931Y-77196030D01*
X198578771Y-77345671D01*
X198301445Y-77622514D01*
X198151172Y-77984412D01*
X198150830Y-78376269D01*
X198300471Y-78738429D01*
X198417338Y-78855500D01*
X196461000Y-78855500D01*
X196461000Y-78445550D01*
X196302250Y-78286800D01*
X195453000Y-78286800D01*
X195453000Y-78306800D01*
X195199000Y-78306800D01*
X195199000Y-78286800D01*
X194349750Y-78286800D01*
X194191000Y-78445550D01*
X194191000Y-78855500D01*
X192752289Y-78855500D01*
X192989201Y-78697201D01*
X194191000Y-77495402D01*
X194191000Y-77874050D01*
X194349750Y-78032800D01*
X195199000Y-78032800D01*
X195199000Y-78012800D01*
X195453000Y-78012800D01*
X195453000Y-78032800D01*
X196302250Y-78032800D01*
X196461000Y-77874050D01*
X196461000Y-76778491D01*
X196364327Y-76545102D01*
X196185699Y-76366473D01*
X195952310Y-76269800D01*
X195611750Y-76269800D01*
X195453002Y-76428548D01*
X195453002Y-76269800D01*
X195416602Y-76269800D01*
X195711001Y-75975401D01*
X195875748Y-75728840D01*
X195897604Y-75618960D01*
X195933600Y-75438000D01*
X195933600Y-74076402D01*
X196415202Y-73594800D01*
X196718560Y-73594800D01*
X196718560Y-76104800D01*
X196762838Y-76340117D01*
X196901910Y-76556241D01*
X197114110Y-76701231D01*
X197366000Y-76752240D01*
X198366000Y-76752240D01*
X198601317Y-76707962D01*
X198817441Y-76568890D01*
X198962431Y-76356690D01*
X199013440Y-76104800D01*
X199013440Y-74346572D01*
X209987338Y-74346572D01*
X210392509Y-75327161D01*
X211142093Y-76078055D01*
X212121973Y-76484936D01*
X213182972Y-76485862D01*
X214163561Y-76080691D01*
X214914455Y-75331107D01*
X215321336Y-74351227D01*
X215322262Y-73290228D01*
X214917091Y-72309639D01*
X214167507Y-71558745D01*
X213187627Y-71151864D01*
X212126628Y-71150938D01*
X211146039Y-71556109D01*
X210395145Y-72305693D01*
X209988264Y-73285573D01*
X209987338Y-74346572D01*
X199013440Y-74346572D01*
X199013440Y-73594800D01*
X198969162Y-73359483D01*
X198830090Y-73143359D01*
X198617890Y-72998369D01*
X198366000Y-72947360D01*
X197366000Y-72947360D01*
X197130683Y-72991638D01*
X196914559Y-73130710D01*
X196769569Y-73342910D01*
X196718560Y-73594800D01*
X196415202Y-73594800D01*
X198259680Y-71750322D01*
X198305167Y-71750362D01*
X198648943Y-71608317D01*
X198912192Y-71345527D01*
X199054838Y-71001999D01*
X199055162Y-70630033D01*
X198913117Y-70286257D01*
X198650327Y-70023008D01*
X198306799Y-69880362D01*
X198254999Y-69880317D01*
X198254999Y-69798711D01*
X198547343Y-69677917D01*
X198810592Y-69415127D01*
X198953238Y-69071599D01*
X198953562Y-68699633D01*
X198811517Y-68355857D01*
X198779716Y-68324000D01*
X200408000Y-68324000D01*
X200408000Y-69458320D01*
X200206483Y-69496238D01*
X199990359Y-69635310D01*
X199845369Y-69847510D01*
X199794360Y-70099400D01*
X199794360Y-70799400D01*
X199838638Y-71034717D01*
X199977710Y-71250841D01*
X200189910Y-71395831D01*
X200202997Y-71398481D01*
X199990359Y-71535310D01*
X199845369Y-71747510D01*
X199794360Y-71999400D01*
X199794360Y-72699400D01*
X199838638Y-72934717D01*
X199977710Y-73150841D01*
X200189910Y-73295831D01*
X200441800Y-73346840D01*
X201147172Y-73346840D01*
X201199273Y-73398941D01*
X201348471Y-73760029D01*
X201625314Y-74037355D01*
X201987212Y-74187628D01*
X202379069Y-74187970D01*
X202741229Y-74038329D01*
X203018555Y-73761486D01*
X203168828Y-73399588D01*
X203169170Y-73007731D01*
X203019529Y-72645571D01*
X202888027Y-72513840D01*
X203881200Y-72513840D01*
X204116517Y-72469562D01*
X204332641Y-72330490D01*
X204477631Y-72118290D01*
X204528640Y-71866400D01*
X204528640Y-71252150D01*
X205846200Y-71252150D01*
X205846200Y-71992709D01*
X205942873Y-72226098D01*
X206121501Y-72404727D01*
X206354890Y-72501400D01*
X206745450Y-72501400D01*
X206904200Y-72342650D01*
X206904200Y-71093400D01*
X207158200Y-71093400D01*
X207158200Y-72342650D01*
X207316950Y-72501400D01*
X207707510Y-72501400D01*
X207940899Y-72404727D01*
X208119527Y-72226098D01*
X208216200Y-71992709D01*
X208216200Y-71252150D01*
X208057450Y-71093400D01*
X207158200Y-71093400D01*
X206904200Y-71093400D01*
X206004950Y-71093400D01*
X205846200Y-71252150D01*
X204528640Y-71252150D01*
X204528640Y-70066400D01*
X204504874Y-69940091D01*
X205846200Y-69940091D01*
X205846200Y-70680650D01*
X206004950Y-70839400D01*
X206904200Y-70839400D01*
X206904200Y-69590150D01*
X207158200Y-69590150D01*
X207158200Y-70839400D01*
X208057450Y-70839400D01*
X208216200Y-70680650D01*
X208216200Y-69940091D01*
X208119527Y-69706702D01*
X207940899Y-69528073D01*
X207707510Y-69431400D01*
X207316950Y-69431400D01*
X207158200Y-69590150D01*
X206904200Y-69590150D01*
X206745450Y-69431400D01*
X206354890Y-69431400D01*
X206121501Y-69528073D01*
X205942873Y-69706702D01*
X205846200Y-69940091D01*
X204504874Y-69940091D01*
X204484362Y-69831083D01*
X204345290Y-69614959D01*
X204133090Y-69469969D01*
X203881200Y-69418960D01*
X202781200Y-69418960D01*
X202545883Y-69463238D01*
X202329759Y-69602310D01*
X202250840Y-69717813D01*
X202205890Y-69647959D01*
X201993690Y-69502969D01*
X201928000Y-69489666D01*
X201928000Y-68457886D01*
X202714822Y-67671064D01*
X202760309Y-67671104D01*
X203104085Y-67529059D01*
X203367334Y-67266269D01*
X203509980Y-66922741D01*
X203510304Y-66550775D01*
X203368259Y-66206999D01*
X203291140Y-66129746D01*
X203292548Y-66127639D01*
X203350400Y-65836800D01*
X203350400Y-63452863D01*
X203382592Y-63420727D01*
X203525238Y-63077199D01*
X203525562Y-62705233D01*
X203383517Y-62361457D01*
X203120727Y-62098208D01*
X202777199Y-61955562D01*
X202405233Y-61955238D01*
X202061457Y-62097283D01*
X201798208Y-62360073D01*
X201655562Y-62703601D01*
X201655238Y-63075567D01*
X201797283Y-63419343D01*
X201830400Y-63452518D01*
X201830400Y-65521998D01*
X200548398Y-66804000D01*
X197459600Y-66804000D01*
X197168761Y-66861852D01*
X197168759Y-66861853D01*
X197168760Y-66861853D01*
X196922198Y-67026599D01*
X196507588Y-67441210D01*
X196342841Y-67687772D01*
X196284989Y-67978611D01*
X196284989Y-70302589D01*
X194500378Y-72087200D01*
X191431800Y-72087200D01*
X191342640Y-72104935D01*
X191342640Y-72078800D01*
X191298362Y-71843483D01*
X191159290Y-71627359D01*
X190947090Y-71482369D01*
X190695200Y-71431360D01*
X189695200Y-71431360D01*
X189459883Y-71475638D01*
X189243759Y-71614710D01*
X189098769Y-71826910D01*
X189047760Y-72078800D01*
X189047760Y-74588800D01*
X189092038Y-74824117D01*
X189231110Y-75040241D01*
X189443310Y-75185231D01*
X189695200Y-75236240D01*
X190695200Y-75236240D01*
X190930517Y-75191962D01*
X191146641Y-75052890D01*
X191291631Y-74840690D01*
X191342640Y-74588800D01*
X191342640Y-73964720D01*
X191482601Y-73871201D01*
X191638560Y-73715242D01*
X191638560Y-76104800D01*
X191682838Y-76340117D01*
X191821910Y-76556241D01*
X192034110Y-76701231D01*
X192286000Y-76752240D01*
X192784558Y-76752240D01*
X192136998Y-77399800D01*
X191393440Y-77399800D01*
X191393440Y-76904800D01*
X191349162Y-76669483D01*
X191210090Y-76453359D01*
X190997890Y-76308369D01*
X190746000Y-76257360D01*
X189746000Y-76257360D01*
X189510683Y-76301638D01*
X189294559Y-76440710D01*
X189149569Y-76652910D01*
X189098560Y-76904800D01*
X189098560Y-78855500D01*
X176668500Y-78855500D01*
X176668500Y-74346572D01*
X178987338Y-74346572D01*
X179392509Y-75327161D01*
X180142093Y-76078055D01*
X181121973Y-76484936D01*
X182182972Y-76485862D01*
X183163561Y-76080691D01*
X183914455Y-75331107D01*
X184321336Y-74351227D01*
X184321996Y-73594800D01*
X186558560Y-73594800D01*
X186558560Y-76104800D01*
X186602838Y-76340117D01*
X186741910Y-76556241D01*
X186954110Y-76701231D01*
X187206000Y-76752240D01*
X188206000Y-76752240D01*
X188441317Y-76707962D01*
X188657441Y-76568890D01*
X188802431Y-76356690D01*
X188853440Y-76104800D01*
X188853440Y-73594800D01*
X188809162Y-73359483D01*
X188670090Y-73143359D01*
X188457890Y-72998369D01*
X188206000Y-72947360D01*
X187206000Y-72947360D01*
X186970683Y-72991638D01*
X186754559Y-73130710D01*
X186609569Y-73342910D01*
X186558560Y-73594800D01*
X184321996Y-73594800D01*
X184322262Y-73290228D01*
X183917091Y-72309639D01*
X183167507Y-71558745D01*
X182187627Y-71151864D01*
X181126628Y-71150938D01*
X180146039Y-71556109D01*
X179395145Y-72305693D01*
X178988264Y-73285573D01*
X178987338Y-74346572D01*
X176668500Y-74346572D01*
X176668500Y-70248269D01*
X185450830Y-70248269D01*
X185600471Y-70610429D01*
X185877314Y-70887755D01*
X186239212Y-71038028D01*
X186507760Y-71038262D01*
X186507760Y-71278800D01*
X186552038Y-71514117D01*
X186691110Y-71730241D01*
X186903310Y-71875231D01*
X187155200Y-71926240D01*
X188155200Y-71926240D01*
X188390517Y-71881962D01*
X188606641Y-71742890D01*
X188751631Y-71530690D01*
X188802640Y-71278800D01*
X188802640Y-70309550D01*
X191600200Y-70309550D01*
X191600200Y-71405109D01*
X191696873Y-71638498D01*
X191875501Y-71817127D01*
X192108890Y-71913800D01*
X192449450Y-71913800D01*
X192608200Y-71755050D01*
X192608200Y-70150800D01*
X192862200Y-70150800D01*
X192862200Y-71755050D01*
X193020950Y-71913800D01*
X193361510Y-71913800D01*
X193594899Y-71817127D01*
X193773527Y-71638498D01*
X193870200Y-71405109D01*
X193870200Y-70309550D01*
X193711450Y-70150800D01*
X192862200Y-70150800D01*
X192608200Y-70150800D01*
X191758950Y-70150800D01*
X191600200Y-70309550D01*
X188802640Y-70309550D01*
X188802640Y-68768800D01*
X188778874Y-68642491D01*
X191600200Y-68642491D01*
X191600200Y-69738050D01*
X191758950Y-69896800D01*
X192608200Y-69896800D01*
X192608200Y-68292550D01*
X192862200Y-68292550D01*
X192862200Y-69896800D01*
X193711450Y-69896800D01*
X193870200Y-69738050D01*
X193870200Y-68642491D01*
X193773527Y-68409102D01*
X193594899Y-68230473D01*
X193361510Y-68133800D01*
X193020950Y-68133800D01*
X192862200Y-68292550D01*
X192608200Y-68292550D01*
X192449450Y-68133800D01*
X192108890Y-68133800D01*
X191875501Y-68230473D01*
X191696873Y-68409102D01*
X191600200Y-68642491D01*
X188778874Y-68642491D01*
X188758362Y-68533483D01*
X188619290Y-68317359D01*
X188407090Y-68172369D01*
X188155200Y-68121360D01*
X187155200Y-68121360D01*
X186919883Y-68165638D01*
X186703759Y-68304710D01*
X186558769Y-68516910D01*
X186507760Y-68768800D01*
X186507760Y-69068263D01*
X186240931Y-69068030D01*
X185878771Y-69217671D01*
X185601445Y-69494514D01*
X185451172Y-69856412D01*
X185450830Y-70248269D01*
X176668500Y-70248269D01*
X176668500Y-61291517D01*
X179912986Y-61291517D01*
X180275924Y-62169892D01*
X180947373Y-62842514D01*
X181825114Y-63206984D01*
X182775517Y-63207814D01*
X183653892Y-62844876D01*
X184326514Y-62173427D01*
X184690984Y-61295686D01*
X184691814Y-60345283D01*
X184328876Y-59466908D01*
X183657427Y-58794286D01*
X182779686Y-58429816D01*
X181829283Y-58428986D01*
X180950908Y-58791924D01*
X180278286Y-59463373D01*
X179913816Y-60341114D01*
X179912986Y-61291517D01*
X176668500Y-61291517D01*
X176668500Y-56291517D01*
X179912986Y-56291517D01*
X180275924Y-57169892D01*
X180947373Y-57842514D01*
X181825114Y-58206984D01*
X182775517Y-58207814D01*
X183653892Y-57844876D01*
X184326514Y-57173427D01*
X184690984Y-56295686D01*
X184691814Y-55345283D01*
X184328876Y-54466908D01*
X183657427Y-53794286D01*
X182779686Y-53429816D01*
X181829283Y-53428986D01*
X180950908Y-53791924D01*
X180278286Y-54463373D01*
X179913816Y-55341114D01*
X179912986Y-56291517D01*
X176668500Y-56291517D01*
X176668500Y-43346572D01*
X178987338Y-43346572D01*
X179392509Y-44327161D01*
X180142093Y-45078055D01*
X181121973Y-45484936D01*
X182182972Y-45485862D01*
X182563575Y-45328600D01*
X187879360Y-45328600D01*
X187879360Y-47838600D01*
X187923638Y-48073917D01*
X188062710Y-48290041D01*
X188274910Y-48435031D01*
X188526800Y-48486040D01*
X189526800Y-48486040D01*
X189762117Y-48441762D01*
X189978241Y-48302690D01*
X190123231Y-48090490D01*
X190174240Y-47838600D01*
X190174240Y-45328600D01*
X190129962Y-45093283D01*
X189990890Y-44877159D01*
X189896086Y-44812382D01*
X190731800Y-43976668D01*
X190731800Y-44789582D01*
X190615359Y-44864510D01*
X190470369Y-45076710D01*
X190419360Y-45328600D01*
X190419360Y-47838600D01*
X190463638Y-48073917D01*
X190602710Y-48290041D01*
X190814910Y-48435031D01*
X191066800Y-48486040D01*
X192066800Y-48486040D01*
X192302117Y-48441762D01*
X192518241Y-48302690D01*
X192663231Y-48090490D01*
X192714240Y-47838600D01*
X192714240Y-45328600D01*
X192669962Y-45093283D01*
X192530890Y-44877159D01*
X192401800Y-44788956D01*
X192401800Y-43525868D01*
X195115741Y-40811927D01*
X195476829Y-40662729D01*
X195754155Y-40385886D01*
X195904428Y-40023988D01*
X195904770Y-39632131D01*
X195755129Y-39269971D01*
X195478286Y-38992645D01*
X195116388Y-38842372D01*
X194724531Y-38842030D01*
X194362371Y-38991671D01*
X194157574Y-39196111D01*
X194055886Y-39094245D01*
X193693988Y-38943972D01*
X193302131Y-38943630D01*
X192939971Y-39093271D01*
X192662645Y-39370114D01*
X192512372Y-39732012D01*
X192512283Y-39834449D01*
X188436366Y-43910366D01*
X188255361Y-44181259D01*
X188191800Y-44500800D01*
X188191800Y-44789582D01*
X188075359Y-44864510D01*
X187930369Y-45076710D01*
X187879360Y-45328600D01*
X182563575Y-45328600D01*
X183163561Y-45080691D01*
X183914455Y-44331107D01*
X184321336Y-43351227D01*
X184322262Y-42290228D01*
X183917091Y-41309639D01*
X183167507Y-40558745D01*
X182187627Y-40151864D01*
X181126628Y-40150938D01*
X180146039Y-40556109D01*
X179395145Y-41305693D01*
X178988264Y-42285573D01*
X178987338Y-43346572D01*
X176668500Y-43346572D01*
X176668500Y-37984500D01*
X217539500Y-37984500D01*
X217539500Y-47842332D01*
X217539500Y-47842332D01*
G37*
X217539500Y-47842332D02*
X214953734Y-45256566D01*
X214934380Y-45243634D01*
X214682841Y-45075561D01*
X214363300Y-45012000D01*
X214232372Y-45012000D01*
X214914455Y-44331107D01*
X215321336Y-43351227D01*
X215322262Y-42290228D01*
X214917091Y-41309639D01*
X214167507Y-40558745D01*
X213187627Y-40151864D01*
X212126628Y-40150938D01*
X211146039Y-40556109D01*
X210395145Y-41305693D01*
X209988264Y-42285573D01*
X209987338Y-43346572D01*
X210392509Y-44327161D01*
X211076153Y-45012000D01*
X207930102Y-45012000D01*
X207957440Y-44877000D01*
X207957440Y-44277000D01*
X207913162Y-44041683D01*
X207849322Y-43942472D01*
X207906431Y-43858890D01*
X207957440Y-43607000D01*
X207957440Y-43007000D01*
X207913162Y-42771683D01*
X207774090Y-42555559D01*
X207561890Y-42410569D01*
X207483533Y-42394701D01*
X207618029Y-42339129D01*
X207895355Y-42062286D01*
X208045628Y-41700388D01*
X208045970Y-41308531D01*
X207896329Y-40946371D01*
X207619486Y-40669045D01*
X207257588Y-40518772D01*
X207121852Y-40518654D01*
X207046890Y-40402159D01*
X206834690Y-40257169D01*
X206582800Y-40206160D01*
X205882800Y-40206160D01*
X205647483Y-40250438D01*
X205431359Y-40389510D01*
X205286369Y-40601710D01*
X205283719Y-40614797D01*
X205146890Y-40402159D01*
X204934690Y-40257169D01*
X204682800Y-40206160D01*
X204386618Y-40206160D01*
X204384748Y-40196761D01*
X204220001Y-39950199D01*
X204194601Y-39924799D01*
X203948039Y-39760052D01*
X203657200Y-39702200D01*
X201289420Y-39702200D01*
X201289570Y-39530531D01*
X201139929Y-39168371D01*
X200863086Y-38891045D01*
X200501188Y-38740772D01*
X200109331Y-38740430D01*
X199747171Y-38890071D01*
X199469845Y-39166914D01*
X199319572Y-39528812D01*
X199319571Y-39529561D01*
X199318227Y-39530905D01*
X199135886Y-39348245D01*
X198773988Y-39197972D01*
X198382131Y-39197630D01*
X198019971Y-39347271D01*
X197742645Y-39624114D01*
X197592372Y-39986012D01*
X197592371Y-39986761D01*
X193516366Y-44062766D01*
X193335361Y-44333659D01*
X193271800Y-44653200D01*
X193271800Y-44789582D01*
X193155359Y-44864510D01*
X193010369Y-45076710D01*
X192959360Y-45328600D01*
X192959360Y-47838600D01*
X193003638Y-48073917D01*
X193142710Y-48290041D01*
X193354910Y-48435031D01*
X193606800Y-48486040D01*
X194606800Y-48486040D01*
X194842117Y-48441762D01*
X195058241Y-48302690D01*
X195203231Y-48090490D01*
X195254240Y-47838600D01*
X195254240Y-45328600D01*
X195209962Y-45093283D01*
X195070890Y-44877159D01*
X195066624Y-44874244D01*
X195811800Y-44129068D01*
X195811800Y-44789582D01*
X195695359Y-44864510D01*
X195550369Y-45076710D01*
X195499360Y-45328600D01*
X195499360Y-47838600D01*
X195543638Y-48073917D01*
X195682710Y-48290041D01*
X195894910Y-48435031D01*
X196146800Y-48486040D01*
X197146800Y-48486040D01*
X197382117Y-48441762D01*
X197598241Y-48302690D01*
X197743231Y-48090490D01*
X197794240Y-47838600D01*
X197794240Y-45328600D01*
X197749962Y-45093283D01*
X197610890Y-44877159D01*
X197481800Y-44788956D01*
X197481800Y-43729068D01*
X197804500Y-43406368D01*
X197804500Y-48262698D01*
X196852698Y-49214500D01*
X188204963Y-49214500D01*
X188172827Y-49182308D01*
X187829299Y-49039662D01*
X187457333Y-49039338D01*
X187113557Y-49181383D01*
X186850308Y-49444173D01*
X186707662Y-49787701D01*
X186707338Y-50159667D01*
X186849383Y-50503443D01*
X187112173Y-50766692D01*
X187455701Y-50909338D01*
X187827667Y-50909662D01*
X188171443Y-50767617D01*
X188204618Y-50734500D01*
X197167500Y-50734500D01*
X197458339Y-50676648D01*
X197704901Y-50511901D01*
X199101901Y-49114901D01*
X199266648Y-48868340D01*
X199267979Y-48861647D01*
X199764766Y-49358434D01*
X200035659Y-49539439D01*
X200355200Y-49603000D01*
X210742191Y-49603000D01*
X210518771Y-49826030D01*
X210305643Y-50339300D01*
X210305158Y-50895061D01*
X210517390Y-51408703D01*
X210910030Y-51802029D01*
X211423300Y-52015157D01*
X211979061Y-52015642D01*
X212492703Y-51803410D01*
X212886029Y-51410770D01*
X213099157Y-50897500D01*
X213099642Y-50341739D01*
X212887410Y-49828097D01*
X212662706Y-49603000D01*
X215046132Y-49603000D01*
X215344400Y-49901268D01*
X215344400Y-51294156D01*
X215219972Y-51593812D01*
X215219630Y-51985669D01*
X215369271Y-52347829D01*
X215646114Y-52625155D01*
X216008012Y-52775428D01*
X216398500Y-52775769D01*
X216398500Y-60141432D01*
X211918344Y-64621588D01*
X211425739Y-64621158D01*
X210912097Y-64833390D01*
X210518771Y-65226030D01*
X210305643Y-65739300D01*
X210305158Y-66295061D01*
X210517390Y-66808703D01*
X210910030Y-67202029D01*
X211423300Y-67415157D01*
X211979061Y-67415642D01*
X212492703Y-67203410D01*
X212886029Y-66810770D01*
X213099157Y-66297500D01*
X213099589Y-65802079D01*
X217539500Y-61362168D01*
X217539500Y-78855500D01*
X201553440Y-78855500D01*
X201553440Y-76904800D01*
X201509162Y-76669483D01*
X201370090Y-76453359D01*
X201157890Y-76308369D01*
X200950641Y-76266400D01*
X202133760Y-76266400D01*
X202133760Y-78066400D01*
X202178038Y-78301717D01*
X202317110Y-78517841D01*
X202529310Y-78662831D01*
X202781200Y-78713840D01*
X203881200Y-78713840D01*
X204116517Y-78669562D01*
X204332641Y-78530490D01*
X204477631Y-78318290D01*
X204528640Y-78066400D01*
X204528640Y-77452150D01*
X205846200Y-77452150D01*
X205846200Y-78192709D01*
X205942873Y-78426098D01*
X206121501Y-78604727D01*
X206354890Y-78701400D01*
X206745450Y-78701400D01*
X206904200Y-78542650D01*
X206904200Y-77293400D01*
X207158200Y-77293400D01*
X207158200Y-78542650D01*
X207316950Y-78701400D01*
X207707510Y-78701400D01*
X207940899Y-78604727D01*
X208119527Y-78426098D01*
X208216200Y-78192709D01*
X208216200Y-77452150D01*
X208057450Y-77293400D01*
X207158200Y-77293400D01*
X206904200Y-77293400D01*
X206004950Y-77293400D01*
X205846200Y-77452150D01*
X204528640Y-77452150D01*
X204528640Y-76266400D01*
X204504874Y-76140091D01*
X205846200Y-76140091D01*
X205846200Y-76880650D01*
X206004950Y-77039400D01*
X206904200Y-77039400D01*
X206904200Y-75790150D01*
X207158200Y-75790150D01*
X207158200Y-77039400D01*
X208057450Y-77039400D01*
X208216200Y-76880650D01*
X208216200Y-76140091D01*
X208119527Y-75906702D01*
X207940899Y-75728073D01*
X207707510Y-75631400D01*
X207316950Y-75631400D01*
X207158200Y-75790150D01*
X206904200Y-75790150D01*
X206745450Y-75631400D01*
X206354890Y-75631400D01*
X206121501Y-75728073D01*
X205942873Y-75906702D01*
X205846200Y-76140091D01*
X204504874Y-76140091D01*
X204484362Y-76031083D01*
X204345290Y-75814959D01*
X204133090Y-75669969D01*
X203881200Y-75618960D01*
X202781200Y-75618960D01*
X202545883Y-75663238D01*
X202329759Y-75802310D01*
X202184769Y-76014510D01*
X202133760Y-76266400D01*
X200950641Y-76266400D01*
X200906000Y-76257360D01*
X199906000Y-76257360D01*
X199670683Y-76301638D01*
X199454559Y-76440710D01*
X199309569Y-76652910D01*
X199258560Y-76904800D01*
X199258560Y-77196307D01*
X198940931Y-77196030D01*
X198578771Y-77345671D01*
X198301445Y-77622514D01*
X198151172Y-77984412D01*
X198150830Y-78376269D01*
X198300471Y-78738429D01*
X198417338Y-78855500D01*
X196461000Y-78855500D01*
X196461000Y-78445550D01*
X196302250Y-78286800D01*
X195453000Y-78286800D01*
X195453000Y-78306800D01*
X195199000Y-78306800D01*
X195199000Y-78286800D01*
X194349750Y-78286800D01*
X194191000Y-78445550D01*
X194191000Y-78855500D01*
X192752289Y-78855500D01*
X192989201Y-78697201D01*
X194191000Y-77495402D01*
X194191000Y-77874050D01*
X194349750Y-78032800D01*
X195199000Y-78032800D01*
X195199000Y-78012800D01*
X195453000Y-78012800D01*
X195453000Y-78032800D01*
X196302250Y-78032800D01*
X196461000Y-77874050D01*
X196461000Y-76778491D01*
X196364327Y-76545102D01*
X196185699Y-76366473D01*
X195952310Y-76269800D01*
X195611750Y-76269800D01*
X195453002Y-76428548D01*
X195453002Y-76269800D01*
X195416602Y-76269800D01*
X195711001Y-75975401D01*
X195875748Y-75728840D01*
X195897604Y-75618960D01*
X195933600Y-75438000D01*
X195933600Y-74076402D01*
X196415202Y-73594800D01*
X196718560Y-73594800D01*
X196718560Y-76104800D01*
X196762838Y-76340117D01*
X196901910Y-76556241D01*
X197114110Y-76701231D01*
X197366000Y-76752240D01*
X198366000Y-76752240D01*
X198601317Y-76707962D01*
X198817441Y-76568890D01*
X198962431Y-76356690D01*
X199013440Y-76104800D01*
X199013440Y-74346572D01*
X209987338Y-74346572D01*
X210392509Y-75327161D01*
X211142093Y-76078055D01*
X212121973Y-76484936D01*
X213182972Y-76485862D01*
X214163561Y-76080691D01*
X214914455Y-75331107D01*
X215321336Y-74351227D01*
X215322262Y-73290228D01*
X214917091Y-72309639D01*
X214167507Y-71558745D01*
X213187627Y-71151864D01*
X212126628Y-71150938D01*
X211146039Y-71556109D01*
X210395145Y-72305693D01*
X209988264Y-73285573D01*
X209987338Y-74346572D01*
X199013440Y-74346572D01*
X199013440Y-73594800D01*
X198969162Y-73359483D01*
X198830090Y-73143359D01*
X198617890Y-72998369D01*
X198366000Y-72947360D01*
X197366000Y-72947360D01*
X197130683Y-72991638D01*
X196914559Y-73130710D01*
X196769569Y-73342910D01*
X196718560Y-73594800D01*
X196415202Y-73594800D01*
X198259680Y-71750322D01*
X198305167Y-71750362D01*
X198648943Y-71608317D01*
X198912192Y-71345527D01*
X199054838Y-71001999D01*
X199055162Y-70630033D01*
X198913117Y-70286257D01*
X198650327Y-70023008D01*
X198306799Y-69880362D01*
X198254999Y-69880317D01*
X198254999Y-69798711D01*
X198547343Y-69677917D01*
X198810592Y-69415127D01*
X198953238Y-69071599D01*
X198953562Y-68699633D01*
X198811517Y-68355857D01*
X198779716Y-68324000D01*
X200408000Y-68324000D01*
X200408000Y-69458320D01*
X200206483Y-69496238D01*
X199990359Y-69635310D01*
X199845369Y-69847510D01*
X199794360Y-70099400D01*
X199794360Y-70799400D01*
X199838638Y-71034717D01*
X199977710Y-71250841D01*
X200189910Y-71395831D01*
X200202997Y-71398481D01*
X199990359Y-71535310D01*
X199845369Y-71747510D01*
X199794360Y-71999400D01*
X199794360Y-72699400D01*
X199838638Y-72934717D01*
X199977710Y-73150841D01*
X200189910Y-73295831D01*
X200441800Y-73346840D01*
X201147172Y-73346840D01*
X201199273Y-73398941D01*
X201348471Y-73760029D01*
X201625314Y-74037355D01*
X201987212Y-74187628D01*
X202379069Y-74187970D01*
X202741229Y-74038329D01*
X203018555Y-73761486D01*
X203168828Y-73399588D01*
X203169170Y-73007731D01*
X203019529Y-72645571D01*
X202888027Y-72513840D01*
X203881200Y-72513840D01*
X204116517Y-72469562D01*
X204332641Y-72330490D01*
X204477631Y-72118290D01*
X204528640Y-71866400D01*
X204528640Y-71252150D01*
X205846200Y-71252150D01*
X205846200Y-71992709D01*
X205942873Y-72226098D01*
X206121501Y-72404727D01*
X206354890Y-72501400D01*
X206745450Y-72501400D01*
X206904200Y-72342650D01*
X206904200Y-71093400D01*
X207158200Y-71093400D01*
X207158200Y-72342650D01*
X207316950Y-72501400D01*
X207707510Y-72501400D01*
X207940899Y-72404727D01*
X208119527Y-72226098D01*
X208216200Y-71992709D01*
X208216200Y-71252150D01*
X208057450Y-71093400D01*
X207158200Y-71093400D01*
X206904200Y-71093400D01*
X206004950Y-71093400D01*
X205846200Y-71252150D01*
X204528640Y-71252150D01*
X204528640Y-70066400D01*
X204504874Y-69940091D01*
X205846200Y-69940091D01*
X205846200Y-70680650D01*
X206004950Y-70839400D01*
X206904200Y-70839400D01*
X206904200Y-69590150D01*
X207158200Y-69590150D01*
X207158200Y-70839400D01*
X208057450Y-70839400D01*
X208216200Y-70680650D01*
X208216200Y-69940091D01*
X208119527Y-69706702D01*
X207940899Y-69528073D01*
X207707510Y-69431400D01*
X207316950Y-69431400D01*
X207158200Y-69590150D01*
X206904200Y-69590150D01*
X206745450Y-69431400D01*
X206354890Y-69431400D01*
X206121501Y-69528073D01*
X205942873Y-69706702D01*
X205846200Y-69940091D01*
X204504874Y-69940091D01*
X204484362Y-69831083D01*
X204345290Y-69614959D01*
X204133090Y-69469969D01*
X203881200Y-69418960D01*
X202781200Y-69418960D01*
X202545883Y-69463238D01*
X202329759Y-69602310D01*
X202250840Y-69717813D01*
X202205890Y-69647959D01*
X201993690Y-69502969D01*
X201928000Y-69489666D01*
X201928000Y-68457886D01*
X202714822Y-67671064D01*
X202760309Y-67671104D01*
X203104085Y-67529059D01*
X203367334Y-67266269D01*
X203509980Y-66922741D01*
X203510304Y-66550775D01*
X203368259Y-66206999D01*
X203291140Y-66129746D01*
X203292548Y-66127639D01*
X203350400Y-65836800D01*
X203350400Y-63452863D01*
X203382592Y-63420727D01*
X203525238Y-63077199D01*
X203525562Y-62705233D01*
X203383517Y-62361457D01*
X203120727Y-62098208D01*
X202777199Y-61955562D01*
X202405233Y-61955238D01*
X202061457Y-62097283D01*
X201798208Y-62360073D01*
X201655562Y-62703601D01*
X201655238Y-63075567D01*
X201797283Y-63419343D01*
X201830400Y-63452518D01*
X201830400Y-65521998D01*
X200548398Y-66804000D01*
X197459600Y-66804000D01*
X197168761Y-66861852D01*
X197168759Y-66861853D01*
X197168760Y-66861853D01*
X196922198Y-67026599D01*
X196507588Y-67441210D01*
X196342841Y-67687772D01*
X196284989Y-67978611D01*
X196284989Y-70302589D01*
X194500378Y-72087200D01*
X191431800Y-72087200D01*
X191342640Y-72104935D01*
X191342640Y-72078800D01*
X191298362Y-71843483D01*
X191159290Y-71627359D01*
X190947090Y-71482369D01*
X190695200Y-71431360D01*
X189695200Y-71431360D01*
X189459883Y-71475638D01*
X189243759Y-71614710D01*
X189098769Y-71826910D01*
X189047760Y-72078800D01*
X189047760Y-74588800D01*
X189092038Y-74824117D01*
X189231110Y-75040241D01*
X189443310Y-75185231D01*
X189695200Y-75236240D01*
X190695200Y-75236240D01*
X190930517Y-75191962D01*
X191146641Y-75052890D01*
X191291631Y-74840690D01*
X191342640Y-74588800D01*
X191342640Y-73964720D01*
X191482601Y-73871201D01*
X191638560Y-73715242D01*
X191638560Y-76104800D01*
X191682838Y-76340117D01*
X191821910Y-76556241D01*
X192034110Y-76701231D01*
X192286000Y-76752240D01*
X192784558Y-76752240D01*
X192136998Y-77399800D01*
X191393440Y-77399800D01*
X191393440Y-76904800D01*
X191349162Y-76669483D01*
X191210090Y-76453359D01*
X190997890Y-76308369D01*
X190746000Y-76257360D01*
X189746000Y-76257360D01*
X189510683Y-76301638D01*
X189294559Y-76440710D01*
X189149569Y-76652910D01*
X189098560Y-76904800D01*
X189098560Y-78855500D01*
X176668500Y-78855500D01*
X176668500Y-74346572D01*
X178987338Y-74346572D01*
X179392509Y-75327161D01*
X180142093Y-76078055D01*
X181121973Y-76484936D01*
X182182972Y-76485862D01*
X183163561Y-76080691D01*
X183914455Y-75331107D01*
X184321336Y-74351227D01*
X184321996Y-73594800D01*
X186558560Y-73594800D01*
X186558560Y-76104800D01*
X186602838Y-76340117D01*
X186741910Y-76556241D01*
X186954110Y-76701231D01*
X187206000Y-76752240D01*
X188206000Y-76752240D01*
X188441317Y-76707962D01*
X188657441Y-76568890D01*
X188802431Y-76356690D01*
X188853440Y-76104800D01*
X188853440Y-73594800D01*
X188809162Y-73359483D01*
X188670090Y-73143359D01*
X188457890Y-72998369D01*
X188206000Y-72947360D01*
X187206000Y-72947360D01*
X186970683Y-72991638D01*
X186754559Y-73130710D01*
X186609569Y-73342910D01*
X186558560Y-73594800D01*
X184321996Y-73594800D01*
X184322262Y-73290228D01*
X183917091Y-72309639D01*
X183167507Y-71558745D01*
X182187627Y-71151864D01*
X181126628Y-71150938D01*
X180146039Y-71556109D01*
X179395145Y-72305693D01*
X178988264Y-73285573D01*
X178987338Y-74346572D01*
X176668500Y-74346572D01*
X176668500Y-70248269D01*
X185450830Y-70248269D01*
X185600471Y-70610429D01*
X185877314Y-70887755D01*
X186239212Y-71038028D01*
X186507760Y-71038262D01*
X186507760Y-71278800D01*
X186552038Y-71514117D01*
X186691110Y-71730241D01*
X186903310Y-71875231D01*
X187155200Y-71926240D01*
X188155200Y-71926240D01*
X188390517Y-71881962D01*
X188606641Y-71742890D01*
X188751631Y-71530690D01*
X188802640Y-71278800D01*
X188802640Y-70309550D01*
X191600200Y-70309550D01*
X191600200Y-71405109D01*
X191696873Y-71638498D01*
X191875501Y-71817127D01*
X192108890Y-71913800D01*
X192449450Y-71913800D01*
X192608200Y-71755050D01*
X192608200Y-70150800D01*
X192862200Y-70150800D01*
X192862200Y-71755050D01*
X193020950Y-71913800D01*
X193361510Y-71913800D01*
X193594899Y-71817127D01*
X193773527Y-71638498D01*
X193870200Y-71405109D01*
X193870200Y-70309550D01*
X193711450Y-70150800D01*
X192862200Y-70150800D01*
X192608200Y-70150800D01*
X191758950Y-70150800D01*
X191600200Y-70309550D01*
X188802640Y-70309550D01*
X188802640Y-68768800D01*
X188778874Y-68642491D01*
X191600200Y-68642491D01*
X191600200Y-69738050D01*
X191758950Y-69896800D01*
X192608200Y-69896800D01*
X192608200Y-68292550D01*
X192862200Y-68292550D01*
X192862200Y-69896800D01*
X193711450Y-69896800D01*
X193870200Y-69738050D01*
X193870200Y-68642491D01*
X193773527Y-68409102D01*
X193594899Y-68230473D01*
X193361510Y-68133800D01*
X193020950Y-68133800D01*
X192862200Y-68292550D01*
X192608200Y-68292550D01*
X192449450Y-68133800D01*
X192108890Y-68133800D01*
X191875501Y-68230473D01*
X191696873Y-68409102D01*
X191600200Y-68642491D01*
X188778874Y-68642491D01*
X188758362Y-68533483D01*
X188619290Y-68317359D01*
X188407090Y-68172369D01*
X188155200Y-68121360D01*
X187155200Y-68121360D01*
X186919883Y-68165638D01*
X186703759Y-68304710D01*
X186558769Y-68516910D01*
X186507760Y-68768800D01*
X186507760Y-69068263D01*
X186240931Y-69068030D01*
X185878771Y-69217671D01*
X185601445Y-69494514D01*
X185451172Y-69856412D01*
X185450830Y-70248269D01*
X176668500Y-70248269D01*
X176668500Y-61291517D01*
X179912986Y-61291517D01*
X180275924Y-62169892D01*
X180947373Y-62842514D01*
X181825114Y-63206984D01*
X182775517Y-63207814D01*
X183653892Y-62844876D01*
X184326514Y-62173427D01*
X184690984Y-61295686D01*
X184691814Y-60345283D01*
X184328876Y-59466908D01*
X183657427Y-58794286D01*
X182779686Y-58429816D01*
X181829283Y-58428986D01*
X180950908Y-58791924D01*
X180278286Y-59463373D01*
X179913816Y-60341114D01*
X179912986Y-61291517D01*
X176668500Y-61291517D01*
X176668500Y-56291517D01*
X179912986Y-56291517D01*
X180275924Y-57169892D01*
X180947373Y-57842514D01*
X181825114Y-58206984D01*
X182775517Y-58207814D01*
X183653892Y-57844876D01*
X184326514Y-57173427D01*
X184690984Y-56295686D01*
X184691814Y-55345283D01*
X184328876Y-54466908D01*
X183657427Y-53794286D01*
X182779686Y-53429816D01*
X181829283Y-53428986D01*
X180950908Y-53791924D01*
X180278286Y-54463373D01*
X179913816Y-55341114D01*
X179912986Y-56291517D01*
X176668500Y-56291517D01*
X176668500Y-43346572D01*
X178987338Y-43346572D01*
X179392509Y-44327161D01*
X180142093Y-45078055D01*
X181121973Y-45484936D01*
X182182972Y-45485862D01*
X182563575Y-45328600D01*
X187879360Y-45328600D01*
X187879360Y-47838600D01*
X187923638Y-48073917D01*
X188062710Y-48290041D01*
X188274910Y-48435031D01*
X188526800Y-48486040D01*
X189526800Y-48486040D01*
X189762117Y-48441762D01*
X189978241Y-48302690D01*
X190123231Y-48090490D01*
X190174240Y-47838600D01*
X190174240Y-45328600D01*
X190129962Y-45093283D01*
X189990890Y-44877159D01*
X189896086Y-44812382D01*
X190731800Y-43976668D01*
X190731800Y-44789582D01*
X190615359Y-44864510D01*
X190470369Y-45076710D01*
X190419360Y-45328600D01*
X190419360Y-47838600D01*
X190463638Y-48073917D01*
X190602710Y-48290041D01*
X190814910Y-48435031D01*
X191066800Y-48486040D01*
X192066800Y-48486040D01*
X192302117Y-48441762D01*
X192518241Y-48302690D01*
X192663231Y-48090490D01*
X192714240Y-47838600D01*
X192714240Y-45328600D01*
X192669962Y-45093283D01*
X192530890Y-44877159D01*
X192401800Y-44788956D01*
X192401800Y-43525868D01*
X195115741Y-40811927D01*
X195476829Y-40662729D01*
X195754155Y-40385886D01*
X195904428Y-40023988D01*
X195904770Y-39632131D01*
X195755129Y-39269971D01*
X195478286Y-38992645D01*
X195116388Y-38842372D01*
X194724531Y-38842030D01*
X194362371Y-38991671D01*
X194157574Y-39196111D01*
X194055886Y-39094245D01*
X193693988Y-38943972D01*
X193302131Y-38943630D01*
X192939971Y-39093271D01*
X192662645Y-39370114D01*
X192512372Y-39732012D01*
X192512283Y-39834449D01*
X188436366Y-43910366D01*
X188255361Y-44181259D01*
X188191800Y-44500800D01*
X188191800Y-44789582D01*
X188075359Y-44864510D01*
X187930369Y-45076710D01*
X187879360Y-45328600D01*
X182563575Y-45328600D01*
X183163561Y-45080691D01*
X183914455Y-44331107D01*
X184321336Y-43351227D01*
X184322262Y-42290228D01*
X183917091Y-41309639D01*
X183167507Y-40558745D01*
X182187627Y-40151864D01*
X181126628Y-40150938D01*
X180146039Y-40556109D01*
X179395145Y-41305693D01*
X178988264Y-42285573D01*
X178987338Y-43346572D01*
X176668500Y-43346572D01*
X176668500Y-37984500D01*
X217539500Y-37984500D01*
X217539500Y-47842332D01*
M02*
