G04 #@! TF.FileFunction,Copper,L2,Bot,Signal*
%FSLAX46Y46*%
G04 Gerber Fmt 4.6, Leading zero omitted, Abs format (unit mm)*
G04 Created by KiCad (PCBNEW 4.0.6) date Sunday, 03. June 2018 14:30:46*
%MOMM*%
%LPD*%
G01*
G04 APERTURE LIST*
%ADD10C,0.100000*%
%ADD11C,1.524000*%
%ADD12R,1.000000X1.250000*%
%ADD13R,3.800000X2.000000*%
%ADD14R,1.500000X2.000000*%
%ADD15R,2.500000X1.100000*%
%ADD16R,1.100000X2.500000*%
%ADD17C,4.064000*%
%ADD18R,5.000000X2.500000*%
%ADD19C,0.700000*%
%ADD20C,0.600000*%
%ADD21C,0.400000*%
%ADD22C,0.250000*%
%ADD23C,2.000000*%
%ADD24C,0.254000*%
G04 APERTURE END LIST*
D10*
D11*
X188404500Y-38671500D03*
X190944500Y-38671500D03*
X193484500Y-38671500D03*
X196024500Y-38671500D03*
X198564500Y-38671500D03*
X201104500Y-38671500D03*
X203644500Y-38671500D03*
X206184500Y-38671500D03*
X206184500Y-38671500D03*
X206184500Y-51371500D03*
X203644500Y-38671500D03*
X203644500Y-51371500D03*
X201104500Y-38671500D03*
X201104500Y-51371500D03*
X198564500Y-38671500D03*
X198564500Y-51371500D03*
X196024500Y-38671500D03*
X196024500Y-51371500D03*
X193484500Y-38671500D03*
X193484500Y-51371500D03*
X190944500Y-38671500D03*
X190944500Y-51371500D03*
X188404500Y-38671500D03*
X188404500Y-51371500D03*
D12*
X214188800Y-53949600D03*
X216188800Y-53949600D03*
X210531200Y-53949600D03*
X212531200Y-53949600D03*
D13*
X213207600Y-63094000D03*
D14*
X213207600Y-56794000D03*
X215507600Y-56794000D03*
X210907600Y-56794000D03*
D15*
X189546000Y-70866000D03*
X189546000Y-68866000D03*
X189546000Y-66866000D03*
X189546000Y-64866000D03*
X189546000Y-62866000D03*
X189546000Y-60866000D03*
X189546000Y-58866000D03*
X189546000Y-56866000D03*
X204946000Y-56866000D03*
X204946000Y-58866000D03*
X204946000Y-60866000D03*
X204946000Y-62866000D03*
X204946000Y-64866000D03*
X204946000Y-66866000D03*
X204946000Y-68866000D03*
X204946000Y-70866000D03*
D16*
X192236000Y-55166000D03*
X194236000Y-55166000D03*
X196236000Y-55166000D03*
X198236000Y-55166000D03*
X200236000Y-55166000D03*
X202236000Y-55166000D03*
D17*
X181654800Y-42818400D03*
X212654800Y-42818400D03*
X181654800Y-73818400D03*
X212654800Y-73818400D03*
D11*
X182302400Y-55818400D03*
X182302400Y-60818400D03*
X211702400Y-50618400D03*
X211702400Y-66018400D03*
D18*
X178612800Y-55676800D03*
X178612800Y-60756800D03*
D19*
X207060800Y-41503600D03*
X202184000Y-73202800D03*
X186436000Y-70053200D03*
X199136000Y-78181200D03*
D20*
X204787500Y-39624000D03*
X190246000Y-55473600D03*
X202996800Y-60909200D03*
X191719200Y-66903600D03*
X213207600Y-58115200D03*
X209753200Y-53949600D03*
D19*
X199961500Y-44577000D03*
X216154000Y-52260500D03*
D20*
X198018400Y-68884800D03*
X198120000Y-70815200D03*
X202575142Y-66735942D03*
X202590400Y-62890400D03*
D19*
X200304400Y-39725600D03*
X198577200Y-40182800D03*
X194919600Y-39827200D03*
X193497200Y-39928800D03*
D20*
X187642500Y-49974500D03*
D21*
X206298800Y-38658800D02*
X206146400Y-38658800D01*
X204246000Y-56866000D02*
X204246000Y-58866000D01*
X210328000Y-56214400D02*
X210907600Y-56794000D01*
D22*
X203644500Y-38671500D02*
X203835000Y-38671500D01*
X203835000Y-38671500D02*
X204787500Y-39624000D01*
X190246000Y-56866000D02*
X190246000Y-55473600D01*
X204246000Y-60866000D02*
X203040000Y-60866000D01*
X203040000Y-60866000D02*
X202996800Y-60909200D01*
X190246000Y-66866000D02*
X191681600Y-66866000D01*
X191681600Y-66866000D02*
X191719200Y-66903600D01*
X213207600Y-56794000D02*
X213207600Y-58115200D01*
X210531200Y-53949600D02*
X209753200Y-53949600D01*
X210531200Y-53949600D02*
X210769200Y-53949600D01*
X213207600Y-56388000D02*
X213207600Y-56794000D01*
D21*
X188404500Y-38671500D02*
X188404500Y-40703500D01*
X192278000Y-44577000D02*
X199961500Y-44577000D01*
X188404500Y-40703500D02*
X192278000Y-44577000D01*
X216188800Y-52295300D02*
X216188800Y-53949600D01*
X216154000Y-52260500D02*
X216188800Y-52295300D01*
X216052400Y-53813200D02*
X216188800Y-53949600D01*
X216188800Y-53949600D02*
X216188800Y-56112800D01*
X216188800Y-56112800D02*
X215507600Y-56794000D01*
D22*
X198018400Y-68884800D02*
X204227200Y-68884800D01*
X204227200Y-68884800D02*
X204246000Y-68866000D01*
X198120000Y-70815200D02*
X204195200Y-70815200D01*
X204195200Y-70815200D02*
X204246000Y-70866000D01*
X203662800Y-64866000D02*
X203370999Y-65157801D01*
X203370999Y-65157801D02*
X203370999Y-65940085D01*
X203370999Y-65940085D02*
X202575142Y-66735942D01*
X204246000Y-64866000D02*
X203662800Y-64866000D01*
X202590400Y-62890400D02*
X204221600Y-62890400D01*
X204221600Y-62890400D02*
X204246000Y-62866000D01*
X190246000Y-60866000D02*
X189136000Y-60866000D01*
X189136000Y-60866000D02*
X186817000Y-58547000D01*
X202057000Y-52705000D02*
X203390500Y-51371500D01*
X188341000Y-52705000D02*
X202057000Y-52705000D01*
X186817000Y-54229000D02*
X188341000Y-52705000D01*
X186817000Y-58547000D02*
X186817000Y-54229000D01*
X203390500Y-51371500D02*
X203644500Y-51371500D01*
X190246000Y-58866000D02*
X188215500Y-58866000D01*
X204279500Y-53276500D02*
X206184500Y-51371500D01*
X188595000Y-53276500D02*
X204279500Y-53276500D01*
X187452000Y-54419500D02*
X188595000Y-53276500D01*
X187452000Y-58102500D02*
X187452000Y-54419500D01*
X188215500Y-58866000D02*
X187452000Y-58102500D01*
X190246000Y-58866000D02*
X188558400Y-58866000D01*
X190246000Y-62866000D02*
X188532500Y-62866000D01*
X188532500Y-62866000D02*
X187579000Y-61912500D01*
X186118500Y-53657500D02*
X188404500Y-51371500D01*
X186118500Y-58737500D02*
X186118500Y-53657500D01*
X187579000Y-60198000D02*
X186118500Y-58737500D01*
X187579000Y-61912500D02*
X187579000Y-60198000D01*
X190246000Y-62866000D02*
X189160998Y-62866000D01*
D21*
X200304400Y-39725600D02*
X201066400Y-38963600D01*
X201066400Y-38963600D02*
X201066400Y-38658800D01*
X198526400Y-40132000D02*
X198526400Y-38658800D01*
X198577200Y-40182800D02*
X198526400Y-40132000D01*
X194919600Y-39827200D02*
X195986400Y-38760400D01*
X195986400Y-38760400D02*
X195986400Y-38658800D01*
X193446400Y-39878000D02*
X193446400Y-38658800D01*
X193497200Y-39928800D02*
X193446400Y-39878000D01*
D23*
X178612800Y-55676800D02*
X182160800Y-55676800D01*
X182160800Y-55676800D02*
X182302400Y-55818400D01*
X178612800Y-60756800D02*
X182240800Y-60756800D01*
X182240800Y-60756800D02*
X182302400Y-60818400D01*
D22*
X190246000Y-68866000D02*
X188754000Y-68866000D01*
X188754000Y-68866000D02*
X186944000Y-67056000D01*
X186944000Y-67056000D02*
X186944000Y-60452000D01*
X186944000Y-60452000D02*
X185483500Y-58991500D01*
X185483500Y-58991500D02*
X185483500Y-52006500D01*
X185483500Y-52006500D02*
X187515500Y-49974500D01*
X187515500Y-49974500D02*
X187642500Y-49974500D01*
D24*
G36*
X187007743Y-38392400D02*
X187007258Y-38948161D01*
X187219490Y-39461803D01*
X187569500Y-39812425D01*
X187569500Y-40703500D01*
X187633061Y-41023041D01*
X187729671Y-41167628D01*
X187814066Y-41293934D01*
X191687566Y-45167434D01*
X191958459Y-45348439D01*
X192278000Y-45412000D01*
X199403886Y-45412000D01*
X199764712Y-45561828D01*
X200156569Y-45562170D01*
X200518729Y-45412529D01*
X200796055Y-45135686D01*
X200946328Y-44773788D01*
X200946670Y-44381931D01*
X200797029Y-44019771D01*
X200520186Y-43742445D01*
X200158288Y-43592172D01*
X199766431Y-43591830D01*
X199404271Y-43741471D01*
X199403741Y-43742000D01*
X192623868Y-43742000D01*
X192228440Y-43346572D01*
X209987338Y-43346572D01*
X210392509Y-44327161D01*
X211142093Y-45078055D01*
X212121973Y-45484936D01*
X213182972Y-45485862D01*
X214163561Y-45080691D01*
X214914455Y-44331107D01*
X215321336Y-43351227D01*
X215322262Y-42290228D01*
X214917091Y-41309639D01*
X214167507Y-40558745D01*
X213187627Y-40151864D01*
X212126628Y-40150938D01*
X211146039Y-40556109D01*
X210395145Y-41305693D01*
X209988264Y-42285573D01*
X209987338Y-43346572D01*
X192228440Y-43346572D01*
X189239500Y-40357632D01*
X189239500Y-39811891D01*
X189399957Y-39651713D01*
X190143892Y-39651713D01*
X190213357Y-39893897D01*
X190736802Y-40080644D01*
X191291868Y-40052862D01*
X191675643Y-39893897D01*
X191745108Y-39651713D01*
X190944500Y-38851105D01*
X190143892Y-39651713D01*
X189399957Y-39651713D01*
X189588129Y-39463870D01*
X189667895Y-39271773D01*
X189722103Y-39402643D01*
X189964287Y-39472108D01*
X190764895Y-38671500D01*
X190750753Y-38657358D01*
X190930358Y-38477753D01*
X190944500Y-38491895D01*
X190958643Y-38477753D01*
X191138248Y-38657358D01*
X191124105Y-38671500D01*
X191924713Y-39472108D01*
X192166897Y-39402643D01*
X192217009Y-39262182D01*
X192299490Y-39461803D01*
X192529074Y-39691788D01*
X192512372Y-39732012D01*
X192512030Y-40123869D01*
X192661671Y-40486029D01*
X192938514Y-40763355D01*
X193300412Y-40913628D01*
X193692269Y-40913970D01*
X194054429Y-40764329D01*
X194259226Y-40559889D01*
X194360914Y-40661755D01*
X194722812Y-40812028D01*
X195114669Y-40812370D01*
X195476829Y-40662729D01*
X195754155Y-40385886D01*
X195885995Y-40068380D01*
X196301161Y-40068742D01*
X196814803Y-39856510D01*
X197208129Y-39463870D01*
X197294449Y-39255988D01*
X197379490Y-39461803D01*
X197683561Y-39766405D01*
X197592372Y-39986012D01*
X197592030Y-40377869D01*
X197741671Y-40740029D01*
X198018514Y-41017355D01*
X198380412Y-41167628D01*
X198772269Y-41167970D01*
X199134429Y-41018329D01*
X199411755Y-40741486D01*
X199562028Y-40379588D01*
X199562031Y-40376152D01*
X199745714Y-40560155D01*
X200107612Y-40710428D01*
X200499469Y-40710770D01*
X200861629Y-40561129D01*
X201138955Y-40284286D01*
X201228512Y-40068609D01*
X201381161Y-40068742D01*
X201894803Y-39856510D01*
X202288129Y-39463870D01*
X202374449Y-39255988D01*
X202459490Y-39461803D01*
X202852130Y-39855129D01*
X203365400Y-40068257D01*
X203921161Y-40068742D01*
X203953988Y-40055178D01*
X203994383Y-40152943D01*
X204257173Y-40416192D01*
X204600701Y-40558838D01*
X204972667Y-40559162D01*
X205316443Y-40417117D01*
X205579692Y-40154327D01*
X205657579Y-39966756D01*
X205976802Y-40080644D01*
X206531868Y-40052862D01*
X206915643Y-39893897D01*
X206985108Y-39651713D01*
X206184500Y-38851105D01*
X206170358Y-38865248D01*
X205990753Y-38685643D01*
X206004895Y-38671500D01*
X205990753Y-38657358D01*
X206170358Y-38477753D01*
X206184500Y-38491895D01*
X206198643Y-38477753D01*
X206378248Y-38657358D01*
X206364105Y-38671500D01*
X207164713Y-39472108D01*
X207406897Y-39402643D01*
X207593644Y-38879198D01*
X207565862Y-38324132D01*
X207425182Y-37984500D01*
X217539500Y-37984500D01*
X217539500Y-78855500D01*
X176668500Y-78855500D01*
X176668500Y-74346572D01*
X178987338Y-74346572D01*
X179392509Y-75327161D01*
X180142093Y-76078055D01*
X181121973Y-76484936D01*
X182182972Y-76485862D01*
X183163561Y-76080691D01*
X183914455Y-75331107D01*
X184321336Y-74351227D01*
X184321340Y-74346572D01*
X209987338Y-74346572D01*
X210392509Y-75327161D01*
X211142093Y-76078055D01*
X212121973Y-76484936D01*
X213182972Y-76485862D01*
X214163561Y-76080691D01*
X214914455Y-75331107D01*
X215321336Y-74351227D01*
X215322262Y-73290228D01*
X214917091Y-72309639D01*
X214167507Y-71558745D01*
X213187627Y-71151864D01*
X212126628Y-71150938D01*
X211146039Y-71556109D01*
X210395145Y-72305693D01*
X209988264Y-73285573D01*
X209987338Y-74346572D01*
X184321340Y-74346572D01*
X184322262Y-73290228D01*
X183917091Y-72309639D01*
X183167507Y-71558745D01*
X182187627Y-71151864D01*
X181126628Y-71150938D01*
X180146039Y-71556109D01*
X179395145Y-72305693D01*
X178988264Y-73285573D01*
X178987338Y-74346572D01*
X176668500Y-74346572D01*
X176668500Y-63665674D01*
X181112800Y-63665674D01*
X181715730Y-63552225D01*
X182251671Y-63207357D01*
X182775517Y-63207814D01*
X183653892Y-62844876D01*
X184326514Y-62173427D01*
X184690984Y-61295686D01*
X184691814Y-60345283D01*
X184328876Y-59466908D01*
X183657427Y-58794286D01*
X182779686Y-58429816D01*
X182352940Y-58429443D01*
X182301894Y-58350116D01*
X182109637Y-58218753D01*
X182127516Y-58207248D01*
X182775517Y-58207814D01*
X183653892Y-57844876D01*
X184326514Y-57173427D01*
X184690984Y-56295686D01*
X184691814Y-55345283D01*
X184328876Y-54466908D01*
X183657427Y-53794286D01*
X182779686Y-53429816D01*
X182404447Y-53429488D01*
X182301894Y-53270116D01*
X181758195Y-52898622D01*
X181112800Y-52767926D01*
X176668500Y-52767926D01*
X176668500Y-52006500D01*
X184723500Y-52006500D01*
X184723500Y-58991500D01*
X184781352Y-59282339D01*
X184946099Y-59528901D01*
X186184000Y-60766802D01*
X186184000Y-67056000D01*
X186241852Y-67346839D01*
X186406599Y-67593401D01*
X187648560Y-68835362D01*
X187648560Y-69416000D01*
X187692838Y-69651317D01*
X187831910Y-69867441D01*
X187833299Y-69868390D01*
X187699569Y-70064110D01*
X187648560Y-70316000D01*
X187648560Y-71416000D01*
X187692838Y-71651317D01*
X187831910Y-71867441D01*
X188044110Y-72012431D01*
X188296000Y-72063440D01*
X190796000Y-72063440D01*
X191031317Y-72019162D01*
X191247441Y-71880090D01*
X191392431Y-71667890D01*
X191443440Y-71416000D01*
X191443440Y-70316000D01*
X191399162Y-70080683D01*
X191260090Y-69864559D01*
X191258701Y-69863610D01*
X191392431Y-69667890D01*
X191443440Y-69416000D01*
X191443440Y-69069967D01*
X197083238Y-69069967D01*
X197225283Y-69413743D01*
X197488073Y-69676992D01*
X197831601Y-69819638D01*
X198203567Y-69819962D01*
X198547343Y-69677917D01*
X198580518Y-69644800D01*
X203091612Y-69644800D01*
X203092838Y-69651317D01*
X203231910Y-69867441D01*
X203233299Y-69868390D01*
X203105657Y-70055200D01*
X198682463Y-70055200D01*
X198650327Y-70023008D01*
X198306799Y-69880362D01*
X197934833Y-69880038D01*
X197591057Y-70022083D01*
X197327808Y-70284873D01*
X197185162Y-70628401D01*
X197184838Y-71000367D01*
X197326883Y-71344143D01*
X197589673Y-71607392D01*
X197933201Y-71750038D01*
X198305167Y-71750362D01*
X198648943Y-71608317D01*
X198682118Y-71575200D01*
X203078516Y-71575200D01*
X203092838Y-71651317D01*
X203231910Y-71867441D01*
X203444110Y-72012431D01*
X203696000Y-72063440D01*
X206196000Y-72063440D01*
X206431317Y-72019162D01*
X206647441Y-71880090D01*
X206792431Y-71667890D01*
X206843440Y-71416000D01*
X206843440Y-70316000D01*
X206799162Y-70080683D01*
X206660090Y-69864559D01*
X206658701Y-69863610D01*
X206792431Y-69667890D01*
X206843440Y-69416000D01*
X206843440Y-68316000D01*
X206799162Y-68080683D01*
X206660090Y-67864559D01*
X206658701Y-67863610D01*
X206792431Y-67667890D01*
X206843440Y-67416000D01*
X206843440Y-66316000D01*
X206839501Y-66295061D01*
X210305158Y-66295061D01*
X210517390Y-66808703D01*
X210910030Y-67202029D01*
X211423300Y-67415157D01*
X211979061Y-67415642D01*
X212492703Y-67203410D01*
X212886029Y-66810770D01*
X213099157Y-66297500D01*
X213099642Y-65741739D01*
X212887410Y-65228097D01*
X212494770Y-64834771D01*
X212270004Y-64741440D01*
X215107600Y-64741440D01*
X215342917Y-64697162D01*
X215559041Y-64558090D01*
X215704031Y-64345890D01*
X215755040Y-64094000D01*
X215755040Y-62094000D01*
X215710762Y-61858683D01*
X215571690Y-61642559D01*
X215359490Y-61497569D01*
X215107600Y-61446560D01*
X211307600Y-61446560D01*
X211072283Y-61490838D01*
X210856159Y-61629910D01*
X210711169Y-61842110D01*
X210660160Y-62094000D01*
X210660160Y-64094000D01*
X210704438Y-64329317D01*
X210843510Y-64545441D01*
X211055710Y-64690431D01*
X211191523Y-64717934D01*
X210912097Y-64833390D01*
X210518771Y-65226030D01*
X210305643Y-65739300D01*
X210305158Y-66295061D01*
X206839501Y-66295061D01*
X206799162Y-66080683D01*
X206660090Y-65864559D01*
X206658701Y-65863610D01*
X206792431Y-65667890D01*
X206843440Y-65416000D01*
X206843440Y-64316000D01*
X206799162Y-64080683D01*
X206660090Y-63864559D01*
X206658701Y-63863610D01*
X206792431Y-63667890D01*
X206843440Y-63416000D01*
X206843440Y-62316000D01*
X206799162Y-62080683D01*
X206660090Y-61864559D01*
X206658701Y-61863610D01*
X206792431Y-61667890D01*
X206843440Y-61416000D01*
X206843440Y-60316000D01*
X206799162Y-60080683D01*
X206660090Y-59864559D01*
X206651402Y-59858623D01*
X206734327Y-59775699D01*
X206831000Y-59542310D01*
X206831000Y-59151750D01*
X206672250Y-58993000D01*
X205073000Y-58993000D01*
X205073000Y-59013000D01*
X204819000Y-59013000D01*
X204819000Y-58993000D01*
X203219750Y-58993000D01*
X203061000Y-59151750D01*
X203061000Y-59542310D01*
X203157673Y-59775699D01*
X203240226Y-59858252D01*
X203160905Y-59974342D01*
X202811633Y-59974038D01*
X202467857Y-60116083D01*
X202204608Y-60378873D01*
X202061962Y-60722401D01*
X202061638Y-61094367D01*
X202203683Y-61438143D01*
X202466473Y-61701392D01*
X202810001Y-61844038D01*
X203181967Y-61844362D01*
X203209688Y-61832908D01*
X203231910Y-61867441D01*
X203233299Y-61868390D01*
X203099569Y-62064110D01*
X203094841Y-62087459D01*
X202777199Y-61955562D01*
X202405233Y-61955238D01*
X202061457Y-62097283D01*
X201798208Y-62360073D01*
X201655562Y-62703601D01*
X201655238Y-63075567D01*
X201797283Y-63419343D01*
X202060073Y-63682592D01*
X202403601Y-63825238D01*
X202775567Y-63825562D01*
X203114773Y-63685405D01*
X203231910Y-63867441D01*
X203233299Y-63868390D01*
X203099569Y-64064110D01*
X203048560Y-64316000D01*
X203048560Y-64405438D01*
X202833598Y-64620400D01*
X202668851Y-64866962D01*
X202610999Y-65157801D01*
X202610999Y-65625283D01*
X202435462Y-65800820D01*
X202389975Y-65800780D01*
X202046199Y-65942825D01*
X201782950Y-66205615D01*
X201640304Y-66549143D01*
X201639980Y-66921109D01*
X201782025Y-67264885D01*
X202044815Y-67528134D01*
X202388343Y-67670780D01*
X202760309Y-67671104D01*
X203072304Y-67542190D01*
X203092838Y-67651317D01*
X203231910Y-67867441D01*
X203233299Y-67868390D01*
X203099569Y-68064110D01*
X203087279Y-68124800D01*
X198580863Y-68124800D01*
X198548727Y-68092608D01*
X198205199Y-67949962D01*
X197833233Y-67949638D01*
X197489457Y-68091683D01*
X197226208Y-68354473D01*
X197083562Y-68698001D01*
X197083238Y-69069967D01*
X191443440Y-69069967D01*
X191443440Y-68316000D01*
X191399162Y-68080683D01*
X191260090Y-67864559D01*
X191258701Y-67863610D01*
X191332591Y-67755469D01*
X191532401Y-67838438D01*
X191904367Y-67838762D01*
X192248143Y-67696717D01*
X192511392Y-67433927D01*
X192654038Y-67090399D01*
X192654362Y-66718433D01*
X192512317Y-66374657D01*
X192249527Y-66111408D01*
X191905999Y-65968762D01*
X191534033Y-65968438D01*
X191370433Y-66036036D01*
X191260090Y-65864559D01*
X191258701Y-65863610D01*
X191392431Y-65667890D01*
X191443440Y-65416000D01*
X191443440Y-64316000D01*
X191399162Y-64080683D01*
X191260090Y-63864559D01*
X191258701Y-63863610D01*
X191392431Y-63667890D01*
X191443440Y-63416000D01*
X191443440Y-62316000D01*
X191399162Y-62080683D01*
X191260090Y-61864559D01*
X191258701Y-61863610D01*
X191392431Y-61667890D01*
X191443440Y-61416000D01*
X191443440Y-60316000D01*
X191399162Y-60080683D01*
X191260090Y-59864559D01*
X191258701Y-59863610D01*
X191392431Y-59667890D01*
X191443440Y-59416000D01*
X191443440Y-58316000D01*
X191399162Y-58080683D01*
X191260090Y-57864559D01*
X191258701Y-57863610D01*
X191392431Y-57667890D01*
X191443440Y-57416000D01*
X191443440Y-57014320D01*
X191686000Y-57063440D01*
X192786000Y-57063440D01*
X193021317Y-57019162D01*
X193237441Y-56880090D01*
X193238390Y-56878701D01*
X193434110Y-57012431D01*
X193686000Y-57063440D01*
X194786000Y-57063440D01*
X195021317Y-57019162D01*
X195237441Y-56880090D01*
X195238390Y-56878701D01*
X195434110Y-57012431D01*
X195686000Y-57063440D01*
X196786000Y-57063440D01*
X197021317Y-57019162D01*
X197237441Y-56880090D01*
X197238390Y-56878701D01*
X197434110Y-57012431D01*
X197686000Y-57063440D01*
X198786000Y-57063440D01*
X199021317Y-57019162D01*
X199237441Y-56880090D01*
X199238390Y-56878701D01*
X199434110Y-57012431D01*
X199686000Y-57063440D01*
X200786000Y-57063440D01*
X201021317Y-57019162D01*
X201237441Y-56880090D01*
X201238390Y-56878701D01*
X201434110Y-57012431D01*
X201686000Y-57063440D01*
X202786000Y-57063440D01*
X203021317Y-57019162D01*
X203061971Y-56993002D01*
X203219748Y-56993002D01*
X203061000Y-57151750D01*
X203061000Y-57542310D01*
X203157673Y-57775699D01*
X203247975Y-57866000D01*
X203157673Y-57956301D01*
X203061000Y-58189690D01*
X203061000Y-58580250D01*
X203219750Y-58739000D01*
X204819000Y-58739000D01*
X204819000Y-56993000D01*
X205073000Y-56993000D01*
X205073000Y-58739000D01*
X206672250Y-58739000D01*
X206831000Y-58580250D01*
X206831000Y-58189690D01*
X206734327Y-57956301D01*
X206644025Y-57866000D01*
X206734327Y-57775699D01*
X206831000Y-57542310D01*
X206831000Y-57151750D01*
X206759000Y-57079750D01*
X209522600Y-57079750D01*
X209522600Y-57920309D01*
X209619273Y-58153698D01*
X209797901Y-58332327D01*
X210031290Y-58429000D01*
X210621850Y-58429000D01*
X210780600Y-58270250D01*
X210780600Y-56921000D01*
X209681350Y-56921000D01*
X209522600Y-57079750D01*
X206759000Y-57079750D01*
X206672250Y-56993000D01*
X205073000Y-56993000D01*
X204819000Y-56993000D01*
X204799000Y-56993000D01*
X204799000Y-56739000D01*
X204819000Y-56739000D01*
X204819000Y-55839750D01*
X205073000Y-55839750D01*
X205073000Y-56739000D01*
X206672250Y-56739000D01*
X206831000Y-56580250D01*
X206831000Y-56189690D01*
X206734327Y-55956301D01*
X206555698Y-55777673D01*
X206322309Y-55681000D01*
X205231750Y-55681000D01*
X205073000Y-55839750D01*
X204819000Y-55839750D01*
X204660250Y-55681000D01*
X203569691Y-55681000D01*
X203433440Y-55737437D01*
X203433440Y-54134767D01*
X208818038Y-54134767D01*
X208960083Y-54478543D01*
X209222873Y-54741792D01*
X209443025Y-54833208D01*
X209567110Y-55026041D01*
X209779310Y-55171031D01*
X209929042Y-55201353D01*
X209797901Y-55255673D01*
X209619273Y-55434302D01*
X209522600Y-55667691D01*
X209522600Y-56508250D01*
X209681350Y-56667000D01*
X210780600Y-56667000D01*
X210780600Y-56647000D01*
X211034600Y-56647000D01*
X211034600Y-56667000D01*
X211054600Y-56667000D01*
X211054600Y-56921000D01*
X211034600Y-56921000D01*
X211034600Y-58270250D01*
X211193350Y-58429000D01*
X211783910Y-58429000D01*
X212017299Y-58332327D01*
X212059260Y-58290366D01*
X212205710Y-58390431D01*
X212319143Y-58413402D01*
X212414483Y-58644143D01*
X212677273Y-58907392D01*
X213020801Y-59050038D01*
X213392767Y-59050362D01*
X213736543Y-58908317D01*
X213999792Y-58645527D01*
X214095295Y-58415531D01*
X214192917Y-58397162D01*
X214359077Y-58290241D01*
X214505710Y-58390431D01*
X214757600Y-58441440D01*
X216257600Y-58441440D01*
X216492917Y-58397162D01*
X216709041Y-58258090D01*
X216854031Y-58045890D01*
X216905040Y-57794000D01*
X216905040Y-56514951D01*
X216909518Y-56508250D01*
X216960239Y-56432341D01*
X217023800Y-56112800D01*
X217023800Y-55113618D01*
X217140241Y-55038690D01*
X217285231Y-54826490D01*
X217336240Y-54574600D01*
X217336240Y-53324600D01*
X217291962Y-53089283D01*
X217152890Y-52873159D01*
X217023800Y-52784956D01*
X217023800Y-52734307D01*
X217138828Y-52457288D01*
X217139170Y-52065431D01*
X216989529Y-51703271D01*
X216712686Y-51425945D01*
X216350788Y-51275672D01*
X215958931Y-51275330D01*
X215596771Y-51424971D01*
X215319445Y-51701814D01*
X215169172Y-52063712D01*
X215168830Y-52455569D01*
X215315398Y-52810293D01*
X215237359Y-52860510D01*
X215190831Y-52928606D01*
X215048498Y-52786273D01*
X214815109Y-52689600D01*
X214474550Y-52689600D01*
X214315800Y-52848350D01*
X214315800Y-53822600D01*
X214335800Y-53822600D01*
X214335800Y-54076600D01*
X214315800Y-54076600D01*
X214315800Y-54096600D01*
X214061800Y-54096600D01*
X214061800Y-54076600D01*
X212658200Y-54076600D01*
X212658200Y-54096600D01*
X212404200Y-54096600D01*
X212404200Y-54076600D01*
X212384200Y-54076600D01*
X212384200Y-53822600D01*
X212404200Y-53822600D01*
X212404200Y-52848350D01*
X212658200Y-52848350D01*
X212658200Y-53822600D01*
X214061800Y-53822600D01*
X214061800Y-52848350D01*
X213903050Y-52689600D01*
X213562491Y-52689600D01*
X213360000Y-52773475D01*
X213157509Y-52689600D01*
X212816950Y-52689600D01*
X212658200Y-52848350D01*
X212404200Y-52848350D01*
X212245450Y-52689600D01*
X211904891Y-52689600D01*
X211671502Y-52786273D01*
X211530264Y-52927510D01*
X211495290Y-52873159D01*
X211283090Y-52728169D01*
X211031200Y-52677160D01*
X210031200Y-52677160D01*
X209795883Y-52721438D01*
X209579759Y-52860510D01*
X209437824Y-53068239D01*
X209224257Y-53156483D01*
X208961008Y-53419273D01*
X208818362Y-53762801D01*
X208818038Y-54134767D01*
X203433440Y-54134767D01*
X203433440Y-54036500D01*
X204279500Y-54036500D01*
X204570339Y-53978648D01*
X204816901Y-53813901D01*
X205875119Y-52755683D01*
X205905400Y-52768257D01*
X206461161Y-52768742D01*
X206974803Y-52556510D01*
X207368129Y-52163870D01*
X207581257Y-51650600D01*
X207581302Y-51598613D01*
X210901792Y-51598613D01*
X210971257Y-51840797D01*
X211494702Y-52027544D01*
X212049768Y-51999762D01*
X212433543Y-51840797D01*
X212503008Y-51598613D01*
X211702400Y-50798005D01*
X210901792Y-51598613D01*
X207581302Y-51598613D01*
X207581742Y-51094839D01*
X207369510Y-50581197D01*
X207199313Y-50410702D01*
X210293256Y-50410702D01*
X210321038Y-50965768D01*
X210480003Y-51349543D01*
X210722187Y-51419008D01*
X211522795Y-50618400D01*
X211882005Y-50618400D01*
X212682613Y-51419008D01*
X212924797Y-51349543D01*
X213111544Y-50826098D01*
X213083762Y-50271032D01*
X212924797Y-49887257D01*
X212682613Y-49817792D01*
X211882005Y-50618400D01*
X211522795Y-50618400D01*
X210722187Y-49817792D01*
X210480003Y-49887257D01*
X210293256Y-50410702D01*
X207199313Y-50410702D01*
X206976870Y-50187871D01*
X206463600Y-49974743D01*
X205907839Y-49974258D01*
X205394197Y-50186490D01*
X205000871Y-50579130D01*
X204914551Y-50787012D01*
X204829510Y-50581197D01*
X204436870Y-50187871D01*
X203923600Y-49974743D01*
X203367839Y-49974258D01*
X202854197Y-50186490D01*
X202460871Y-50579130D01*
X202374551Y-50787012D01*
X202289510Y-50581197D01*
X201896870Y-50187871D01*
X201383600Y-49974743D01*
X200827839Y-49974258D01*
X200314197Y-50186490D01*
X199920871Y-50579130D01*
X199834551Y-50787012D01*
X199749510Y-50581197D01*
X199356870Y-50187871D01*
X198843600Y-49974743D01*
X198287839Y-49974258D01*
X197774197Y-50186490D01*
X197380871Y-50579130D01*
X197294551Y-50787012D01*
X197209510Y-50581197D01*
X196816870Y-50187871D01*
X196303600Y-49974743D01*
X195747839Y-49974258D01*
X195234197Y-50186490D01*
X194840871Y-50579130D01*
X194754551Y-50787012D01*
X194669510Y-50581197D01*
X194276870Y-50187871D01*
X193763600Y-49974743D01*
X193207839Y-49974258D01*
X192694197Y-50186490D01*
X192300871Y-50579130D01*
X192214551Y-50787012D01*
X192129510Y-50581197D01*
X191736870Y-50187871D01*
X191223600Y-49974743D01*
X190667839Y-49974258D01*
X190154197Y-50186490D01*
X189760871Y-50579130D01*
X189674551Y-50787012D01*
X189589510Y-50581197D01*
X189196870Y-50187871D01*
X188683600Y-49974743D01*
X188577501Y-49974650D01*
X188577662Y-49789333D01*
X188515210Y-49638187D01*
X210901792Y-49638187D01*
X211702400Y-50438795D01*
X212503008Y-49638187D01*
X212433543Y-49396003D01*
X211910098Y-49209256D01*
X211355032Y-49237038D01*
X210971257Y-49396003D01*
X210901792Y-49638187D01*
X188515210Y-49638187D01*
X188435617Y-49445557D01*
X188172827Y-49182308D01*
X187829299Y-49039662D01*
X187457333Y-49039338D01*
X187113557Y-49181383D01*
X186850308Y-49444173D01*
X186764587Y-49650611D01*
X184946099Y-51469099D01*
X184781352Y-51715661D01*
X184723500Y-52006500D01*
X176668500Y-52006500D01*
X176668500Y-43346572D01*
X178987338Y-43346572D01*
X179392509Y-44327161D01*
X180142093Y-45078055D01*
X181121973Y-45484936D01*
X182182972Y-45485862D01*
X183163561Y-45080691D01*
X183914455Y-44331107D01*
X184321336Y-43351227D01*
X184322262Y-42290228D01*
X183917091Y-41309639D01*
X183167507Y-40558745D01*
X182187627Y-40151864D01*
X181126628Y-40150938D01*
X180146039Y-40556109D01*
X179395145Y-41305693D01*
X178988264Y-42285573D01*
X178987338Y-43346572D01*
X176668500Y-43346572D01*
X176668500Y-37984500D01*
X187177118Y-37984500D01*
X187007743Y-38392400D01*
X187007743Y-38392400D01*
G37*
X187007743Y-38392400D02*
X187007258Y-38948161D01*
X187219490Y-39461803D01*
X187569500Y-39812425D01*
X187569500Y-40703500D01*
X187633061Y-41023041D01*
X187729671Y-41167628D01*
X187814066Y-41293934D01*
X191687566Y-45167434D01*
X191958459Y-45348439D01*
X192278000Y-45412000D01*
X199403886Y-45412000D01*
X199764712Y-45561828D01*
X200156569Y-45562170D01*
X200518729Y-45412529D01*
X200796055Y-45135686D01*
X200946328Y-44773788D01*
X200946670Y-44381931D01*
X200797029Y-44019771D01*
X200520186Y-43742445D01*
X200158288Y-43592172D01*
X199766431Y-43591830D01*
X199404271Y-43741471D01*
X199403741Y-43742000D01*
X192623868Y-43742000D01*
X192228440Y-43346572D01*
X209987338Y-43346572D01*
X210392509Y-44327161D01*
X211142093Y-45078055D01*
X212121973Y-45484936D01*
X213182972Y-45485862D01*
X214163561Y-45080691D01*
X214914455Y-44331107D01*
X215321336Y-43351227D01*
X215322262Y-42290228D01*
X214917091Y-41309639D01*
X214167507Y-40558745D01*
X213187627Y-40151864D01*
X212126628Y-40150938D01*
X211146039Y-40556109D01*
X210395145Y-41305693D01*
X209988264Y-42285573D01*
X209987338Y-43346572D01*
X192228440Y-43346572D01*
X189239500Y-40357632D01*
X189239500Y-39811891D01*
X189399957Y-39651713D01*
X190143892Y-39651713D01*
X190213357Y-39893897D01*
X190736802Y-40080644D01*
X191291868Y-40052862D01*
X191675643Y-39893897D01*
X191745108Y-39651713D01*
X190944500Y-38851105D01*
X190143892Y-39651713D01*
X189399957Y-39651713D01*
X189588129Y-39463870D01*
X189667895Y-39271773D01*
X189722103Y-39402643D01*
X189964287Y-39472108D01*
X190764895Y-38671500D01*
X190750753Y-38657358D01*
X190930358Y-38477753D01*
X190944500Y-38491895D01*
X190958643Y-38477753D01*
X191138248Y-38657358D01*
X191124105Y-38671500D01*
X191924713Y-39472108D01*
X192166897Y-39402643D01*
X192217009Y-39262182D01*
X192299490Y-39461803D01*
X192529074Y-39691788D01*
X192512372Y-39732012D01*
X192512030Y-40123869D01*
X192661671Y-40486029D01*
X192938514Y-40763355D01*
X193300412Y-40913628D01*
X193692269Y-40913970D01*
X194054429Y-40764329D01*
X194259226Y-40559889D01*
X194360914Y-40661755D01*
X194722812Y-40812028D01*
X195114669Y-40812370D01*
X195476829Y-40662729D01*
X195754155Y-40385886D01*
X195885995Y-40068380D01*
X196301161Y-40068742D01*
X196814803Y-39856510D01*
X197208129Y-39463870D01*
X197294449Y-39255988D01*
X197379490Y-39461803D01*
X197683561Y-39766405D01*
X197592372Y-39986012D01*
X197592030Y-40377869D01*
X197741671Y-40740029D01*
X198018514Y-41017355D01*
X198380412Y-41167628D01*
X198772269Y-41167970D01*
X199134429Y-41018329D01*
X199411755Y-40741486D01*
X199562028Y-40379588D01*
X199562031Y-40376152D01*
X199745714Y-40560155D01*
X200107612Y-40710428D01*
X200499469Y-40710770D01*
X200861629Y-40561129D01*
X201138955Y-40284286D01*
X201228512Y-40068609D01*
X201381161Y-40068742D01*
X201894803Y-39856510D01*
X202288129Y-39463870D01*
X202374449Y-39255988D01*
X202459490Y-39461803D01*
X202852130Y-39855129D01*
X203365400Y-40068257D01*
X203921161Y-40068742D01*
X203953988Y-40055178D01*
X203994383Y-40152943D01*
X204257173Y-40416192D01*
X204600701Y-40558838D01*
X204972667Y-40559162D01*
X205316443Y-40417117D01*
X205579692Y-40154327D01*
X205657579Y-39966756D01*
X205976802Y-40080644D01*
X206531868Y-40052862D01*
X206915643Y-39893897D01*
X206985108Y-39651713D01*
X206184500Y-38851105D01*
X206170358Y-38865248D01*
X205990753Y-38685643D01*
X206004895Y-38671500D01*
X205990753Y-38657358D01*
X206170358Y-38477753D01*
X206184500Y-38491895D01*
X206198643Y-38477753D01*
X206378248Y-38657358D01*
X206364105Y-38671500D01*
X207164713Y-39472108D01*
X207406897Y-39402643D01*
X207593644Y-38879198D01*
X207565862Y-38324132D01*
X207425182Y-37984500D01*
X217539500Y-37984500D01*
X217539500Y-78855500D01*
X176668500Y-78855500D01*
X176668500Y-74346572D01*
X178987338Y-74346572D01*
X179392509Y-75327161D01*
X180142093Y-76078055D01*
X181121973Y-76484936D01*
X182182972Y-76485862D01*
X183163561Y-76080691D01*
X183914455Y-75331107D01*
X184321336Y-74351227D01*
X184321340Y-74346572D01*
X209987338Y-74346572D01*
X210392509Y-75327161D01*
X211142093Y-76078055D01*
X212121973Y-76484936D01*
X213182972Y-76485862D01*
X214163561Y-76080691D01*
X214914455Y-75331107D01*
X215321336Y-74351227D01*
X215322262Y-73290228D01*
X214917091Y-72309639D01*
X214167507Y-71558745D01*
X213187627Y-71151864D01*
X212126628Y-71150938D01*
X211146039Y-71556109D01*
X210395145Y-72305693D01*
X209988264Y-73285573D01*
X209987338Y-74346572D01*
X184321340Y-74346572D01*
X184322262Y-73290228D01*
X183917091Y-72309639D01*
X183167507Y-71558745D01*
X182187627Y-71151864D01*
X181126628Y-71150938D01*
X180146039Y-71556109D01*
X179395145Y-72305693D01*
X178988264Y-73285573D01*
X178987338Y-74346572D01*
X176668500Y-74346572D01*
X176668500Y-63665674D01*
X181112800Y-63665674D01*
X181715730Y-63552225D01*
X182251671Y-63207357D01*
X182775517Y-63207814D01*
X183653892Y-62844876D01*
X184326514Y-62173427D01*
X184690984Y-61295686D01*
X184691814Y-60345283D01*
X184328876Y-59466908D01*
X183657427Y-58794286D01*
X182779686Y-58429816D01*
X182352940Y-58429443D01*
X182301894Y-58350116D01*
X182109637Y-58218753D01*
X182127516Y-58207248D01*
X182775517Y-58207814D01*
X183653892Y-57844876D01*
X184326514Y-57173427D01*
X184690984Y-56295686D01*
X184691814Y-55345283D01*
X184328876Y-54466908D01*
X183657427Y-53794286D01*
X182779686Y-53429816D01*
X182404447Y-53429488D01*
X182301894Y-53270116D01*
X181758195Y-52898622D01*
X181112800Y-52767926D01*
X176668500Y-52767926D01*
X176668500Y-52006500D01*
X184723500Y-52006500D01*
X184723500Y-58991500D01*
X184781352Y-59282339D01*
X184946099Y-59528901D01*
X186184000Y-60766802D01*
X186184000Y-67056000D01*
X186241852Y-67346839D01*
X186406599Y-67593401D01*
X187648560Y-68835362D01*
X187648560Y-69416000D01*
X187692838Y-69651317D01*
X187831910Y-69867441D01*
X187833299Y-69868390D01*
X187699569Y-70064110D01*
X187648560Y-70316000D01*
X187648560Y-71416000D01*
X187692838Y-71651317D01*
X187831910Y-71867441D01*
X188044110Y-72012431D01*
X188296000Y-72063440D01*
X190796000Y-72063440D01*
X191031317Y-72019162D01*
X191247441Y-71880090D01*
X191392431Y-71667890D01*
X191443440Y-71416000D01*
X191443440Y-70316000D01*
X191399162Y-70080683D01*
X191260090Y-69864559D01*
X191258701Y-69863610D01*
X191392431Y-69667890D01*
X191443440Y-69416000D01*
X191443440Y-69069967D01*
X197083238Y-69069967D01*
X197225283Y-69413743D01*
X197488073Y-69676992D01*
X197831601Y-69819638D01*
X198203567Y-69819962D01*
X198547343Y-69677917D01*
X198580518Y-69644800D01*
X203091612Y-69644800D01*
X203092838Y-69651317D01*
X203231910Y-69867441D01*
X203233299Y-69868390D01*
X203105657Y-70055200D01*
X198682463Y-70055200D01*
X198650327Y-70023008D01*
X198306799Y-69880362D01*
X197934833Y-69880038D01*
X197591057Y-70022083D01*
X197327808Y-70284873D01*
X197185162Y-70628401D01*
X197184838Y-71000367D01*
X197326883Y-71344143D01*
X197589673Y-71607392D01*
X197933201Y-71750038D01*
X198305167Y-71750362D01*
X198648943Y-71608317D01*
X198682118Y-71575200D01*
X203078516Y-71575200D01*
X203092838Y-71651317D01*
X203231910Y-71867441D01*
X203444110Y-72012431D01*
X203696000Y-72063440D01*
X206196000Y-72063440D01*
X206431317Y-72019162D01*
X206647441Y-71880090D01*
X206792431Y-71667890D01*
X206843440Y-71416000D01*
X206843440Y-70316000D01*
X206799162Y-70080683D01*
X206660090Y-69864559D01*
X206658701Y-69863610D01*
X206792431Y-69667890D01*
X206843440Y-69416000D01*
X206843440Y-68316000D01*
X206799162Y-68080683D01*
X206660090Y-67864559D01*
X206658701Y-67863610D01*
X206792431Y-67667890D01*
X206843440Y-67416000D01*
X206843440Y-66316000D01*
X206839501Y-66295061D01*
X210305158Y-66295061D01*
X210517390Y-66808703D01*
X210910030Y-67202029D01*
X211423300Y-67415157D01*
X211979061Y-67415642D01*
X212492703Y-67203410D01*
X212886029Y-66810770D01*
X213099157Y-66297500D01*
X213099642Y-65741739D01*
X212887410Y-65228097D01*
X212494770Y-64834771D01*
X212270004Y-64741440D01*
X215107600Y-64741440D01*
X215342917Y-64697162D01*
X215559041Y-64558090D01*
X215704031Y-64345890D01*
X215755040Y-64094000D01*
X215755040Y-62094000D01*
X215710762Y-61858683D01*
X215571690Y-61642559D01*
X215359490Y-61497569D01*
X215107600Y-61446560D01*
X211307600Y-61446560D01*
X211072283Y-61490838D01*
X210856159Y-61629910D01*
X210711169Y-61842110D01*
X210660160Y-62094000D01*
X210660160Y-64094000D01*
X210704438Y-64329317D01*
X210843510Y-64545441D01*
X211055710Y-64690431D01*
X211191523Y-64717934D01*
X210912097Y-64833390D01*
X210518771Y-65226030D01*
X210305643Y-65739300D01*
X210305158Y-66295061D01*
X206839501Y-66295061D01*
X206799162Y-66080683D01*
X206660090Y-65864559D01*
X206658701Y-65863610D01*
X206792431Y-65667890D01*
X206843440Y-65416000D01*
X206843440Y-64316000D01*
X206799162Y-64080683D01*
X206660090Y-63864559D01*
X206658701Y-63863610D01*
X206792431Y-63667890D01*
X206843440Y-63416000D01*
X206843440Y-62316000D01*
X206799162Y-62080683D01*
X206660090Y-61864559D01*
X206658701Y-61863610D01*
X206792431Y-61667890D01*
X206843440Y-61416000D01*
X206843440Y-60316000D01*
X206799162Y-60080683D01*
X206660090Y-59864559D01*
X206651402Y-59858623D01*
X206734327Y-59775699D01*
X206831000Y-59542310D01*
X206831000Y-59151750D01*
X206672250Y-58993000D01*
X205073000Y-58993000D01*
X205073000Y-59013000D01*
X204819000Y-59013000D01*
X204819000Y-58993000D01*
X203219750Y-58993000D01*
X203061000Y-59151750D01*
X203061000Y-59542310D01*
X203157673Y-59775699D01*
X203240226Y-59858252D01*
X203160905Y-59974342D01*
X202811633Y-59974038D01*
X202467857Y-60116083D01*
X202204608Y-60378873D01*
X202061962Y-60722401D01*
X202061638Y-61094367D01*
X202203683Y-61438143D01*
X202466473Y-61701392D01*
X202810001Y-61844038D01*
X203181967Y-61844362D01*
X203209688Y-61832908D01*
X203231910Y-61867441D01*
X203233299Y-61868390D01*
X203099569Y-62064110D01*
X203094841Y-62087459D01*
X202777199Y-61955562D01*
X202405233Y-61955238D01*
X202061457Y-62097283D01*
X201798208Y-62360073D01*
X201655562Y-62703601D01*
X201655238Y-63075567D01*
X201797283Y-63419343D01*
X202060073Y-63682592D01*
X202403601Y-63825238D01*
X202775567Y-63825562D01*
X203114773Y-63685405D01*
X203231910Y-63867441D01*
X203233299Y-63868390D01*
X203099569Y-64064110D01*
X203048560Y-64316000D01*
X203048560Y-64405438D01*
X202833598Y-64620400D01*
X202668851Y-64866962D01*
X202610999Y-65157801D01*
X202610999Y-65625283D01*
X202435462Y-65800820D01*
X202389975Y-65800780D01*
X202046199Y-65942825D01*
X201782950Y-66205615D01*
X201640304Y-66549143D01*
X201639980Y-66921109D01*
X201782025Y-67264885D01*
X202044815Y-67528134D01*
X202388343Y-67670780D01*
X202760309Y-67671104D01*
X203072304Y-67542190D01*
X203092838Y-67651317D01*
X203231910Y-67867441D01*
X203233299Y-67868390D01*
X203099569Y-68064110D01*
X203087279Y-68124800D01*
X198580863Y-68124800D01*
X198548727Y-68092608D01*
X198205199Y-67949962D01*
X197833233Y-67949638D01*
X197489457Y-68091683D01*
X197226208Y-68354473D01*
X197083562Y-68698001D01*
X197083238Y-69069967D01*
X191443440Y-69069967D01*
X191443440Y-68316000D01*
X191399162Y-68080683D01*
X191260090Y-67864559D01*
X191258701Y-67863610D01*
X191332591Y-67755469D01*
X191532401Y-67838438D01*
X191904367Y-67838762D01*
X192248143Y-67696717D01*
X192511392Y-67433927D01*
X192654038Y-67090399D01*
X192654362Y-66718433D01*
X192512317Y-66374657D01*
X192249527Y-66111408D01*
X191905999Y-65968762D01*
X191534033Y-65968438D01*
X191370433Y-66036036D01*
X191260090Y-65864559D01*
X191258701Y-65863610D01*
X191392431Y-65667890D01*
X191443440Y-65416000D01*
X191443440Y-64316000D01*
X191399162Y-64080683D01*
X191260090Y-63864559D01*
X191258701Y-63863610D01*
X191392431Y-63667890D01*
X191443440Y-63416000D01*
X191443440Y-62316000D01*
X191399162Y-62080683D01*
X191260090Y-61864559D01*
X191258701Y-61863610D01*
X191392431Y-61667890D01*
X191443440Y-61416000D01*
X191443440Y-60316000D01*
X191399162Y-60080683D01*
X191260090Y-59864559D01*
X191258701Y-59863610D01*
X191392431Y-59667890D01*
X191443440Y-59416000D01*
X191443440Y-58316000D01*
X191399162Y-58080683D01*
X191260090Y-57864559D01*
X191258701Y-57863610D01*
X191392431Y-57667890D01*
X191443440Y-57416000D01*
X191443440Y-57014320D01*
X191686000Y-57063440D01*
X192786000Y-57063440D01*
X193021317Y-57019162D01*
X193237441Y-56880090D01*
X193238390Y-56878701D01*
X193434110Y-57012431D01*
X193686000Y-57063440D01*
X194786000Y-57063440D01*
X195021317Y-57019162D01*
X195237441Y-56880090D01*
X195238390Y-56878701D01*
X195434110Y-57012431D01*
X195686000Y-57063440D01*
X196786000Y-57063440D01*
X197021317Y-57019162D01*
X197237441Y-56880090D01*
X197238390Y-56878701D01*
X197434110Y-57012431D01*
X197686000Y-57063440D01*
X198786000Y-57063440D01*
X199021317Y-57019162D01*
X199237441Y-56880090D01*
X199238390Y-56878701D01*
X199434110Y-57012431D01*
X199686000Y-57063440D01*
X200786000Y-57063440D01*
X201021317Y-57019162D01*
X201237441Y-56880090D01*
X201238390Y-56878701D01*
X201434110Y-57012431D01*
X201686000Y-57063440D01*
X202786000Y-57063440D01*
X203021317Y-57019162D01*
X203061971Y-56993002D01*
X203219748Y-56993002D01*
X203061000Y-57151750D01*
X203061000Y-57542310D01*
X203157673Y-57775699D01*
X203247975Y-57866000D01*
X203157673Y-57956301D01*
X203061000Y-58189690D01*
X203061000Y-58580250D01*
X203219750Y-58739000D01*
X204819000Y-58739000D01*
X204819000Y-56993000D01*
X205073000Y-56993000D01*
X205073000Y-58739000D01*
X206672250Y-58739000D01*
X206831000Y-58580250D01*
X206831000Y-58189690D01*
X206734327Y-57956301D01*
X206644025Y-57866000D01*
X206734327Y-57775699D01*
X206831000Y-57542310D01*
X206831000Y-57151750D01*
X206759000Y-57079750D01*
X209522600Y-57079750D01*
X209522600Y-57920309D01*
X209619273Y-58153698D01*
X209797901Y-58332327D01*
X210031290Y-58429000D01*
X210621850Y-58429000D01*
X210780600Y-58270250D01*
X210780600Y-56921000D01*
X209681350Y-56921000D01*
X209522600Y-57079750D01*
X206759000Y-57079750D01*
X206672250Y-56993000D01*
X205073000Y-56993000D01*
X204819000Y-56993000D01*
X204799000Y-56993000D01*
X204799000Y-56739000D01*
X204819000Y-56739000D01*
X204819000Y-55839750D01*
X205073000Y-55839750D01*
X205073000Y-56739000D01*
X206672250Y-56739000D01*
X206831000Y-56580250D01*
X206831000Y-56189690D01*
X206734327Y-55956301D01*
X206555698Y-55777673D01*
X206322309Y-55681000D01*
X205231750Y-55681000D01*
X205073000Y-55839750D01*
X204819000Y-55839750D01*
X204660250Y-55681000D01*
X203569691Y-55681000D01*
X203433440Y-55737437D01*
X203433440Y-54134767D01*
X208818038Y-54134767D01*
X208960083Y-54478543D01*
X209222873Y-54741792D01*
X209443025Y-54833208D01*
X209567110Y-55026041D01*
X209779310Y-55171031D01*
X209929042Y-55201353D01*
X209797901Y-55255673D01*
X209619273Y-55434302D01*
X209522600Y-55667691D01*
X209522600Y-56508250D01*
X209681350Y-56667000D01*
X210780600Y-56667000D01*
X210780600Y-56647000D01*
X211034600Y-56647000D01*
X211034600Y-56667000D01*
X211054600Y-56667000D01*
X211054600Y-56921000D01*
X211034600Y-56921000D01*
X211034600Y-58270250D01*
X211193350Y-58429000D01*
X211783910Y-58429000D01*
X212017299Y-58332327D01*
X212059260Y-58290366D01*
X212205710Y-58390431D01*
X212319143Y-58413402D01*
X212414483Y-58644143D01*
X212677273Y-58907392D01*
X213020801Y-59050038D01*
X213392767Y-59050362D01*
X213736543Y-58908317D01*
X213999792Y-58645527D01*
X214095295Y-58415531D01*
X214192917Y-58397162D01*
X214359077Y-58290241D01*
X214505710Y-58390431D01*
X214757600Y-58441440D01*
X216257600Y-58441440D01*
X216492917Y-58397162D01*
X216709041Y-58258090D01*
X216854031Y-58045890D01*
X216905040Y-57794000D01*
X216905040Y-56514951D01*
X216909518Y-56508250D01*
X216960239Y-56432341D01*
X217023800Y-56112800D01*
X217023800Y-55113618D01*
X217140241Y-55038690D01*
X217285231Y-54826490D01*
X217336240Y-54574600D01*
X217336240Y-53324600D01*
X217291962Y-53089283D01*
X217152890Y-52873159D01*
X217023800Y-52784956D01*
X217023800Y-52734307D01*
X217138828Y-52457288D01*
X217139170Y-52065431D01*
X216989529Y-51703271D01*
X216712686Y-51425945D01*
X216350788Y-51275672D01*
X215958931Y-51275330D01*
X215596771Y-51424971D01*
X215319445Y-51701814D01*
X215169172Y-52063712D01*
X215168830Y-52455569D01*
X215315398Y-52810293D01*
X215237359Y-52860510D01*
X215190831Y-52928606D01*
X215048498Y-52786273D01*
X214815109Y-52689600D01*
X214474550Y-52689600D01*
X214315800Y-52848350D01*
X214315800Y-53822600D01*
X214335800Y-53822600D01*
X214335800Y-54076600D01*
X214315800Y-54076600D01*
X214315800Y-54096600D01*
X214061800Y-54096600D01*
X214061800Y-54076600D01*
X212658200Y-54076600D01*
X212658200Y-54096600D01*
X212404200Y-54096600D01*
X212404200Y-54076600D01*
X212384200Y-54076600D01*
X212384200Y-53822600D01*
X212404200Y-53822600D01*
X212404200Y-52848350D01*
X212658200Y-52848350D01*
X212658200Y-53822600D01*
X214061800Y-53822600D01*
X214061800Y-52848350D01*
X213903050Y-52689600D01*
X213562491Y-52689600D01*
X213360000Y-52773475D01*
X213157509Y-52689600D01*
X212816950Y-52689600D01*
X212658200Y-52848350D01*
X212404200Y-52848350D01*
X212245450Y-52689600D01*
X211904891Y-52689600D01*
X211671502Y-52786273D01*
X211530264Y-52927510D01*
X211495290Y-52873159D01*
X211283090Y-52728169D01*
X211031200Y-52677160D01*
X210031200Y-52677160D01*
X209795883Y-52721438D01*
X209579759Y-52860510D01*
X209437824Y-53068239D01*
X209224257Y-53156483D01*
X208961008Y-53419273D01*
X208818362Y-53762801D01*
X208818038Y-54134767D01*
X203433440Y-54134767D01*
X203433440Y-54036500D01*
X204279500Y-54036500D01*
X204570339Y-53978648D01*
X204816901Y-53813901D01*
X205875119Y-52755683D01*
X205905400Y-52768257D01*
X206461161Y-52768742D01*
X206974803Y-52556510D01*
X207368129Y-52163870D01*
X207581257Y-51650600D01*
X207581302Y-51598613D01*
X210901792Y-51598613D01*
X210971257Y-51840797D01*
X211494702Y-52027544D01*
X212049768Y-51999762D01*
X212433543Y-51840797D01*
X212503008Y-51598613D01*
X211702400Y-50798005D01*
X210901792Y-51598613D01*
X207581302Y-51598613D01*
X207581742Y-51094839D01*
X207369510Y-50581197D01*
X207199313Y-50410702D01*
X210293256Y-50410702D01*
X210321038Y-50965768D01*
X210480003Y-51349543D01*
X210722187Y-51419008D01*
X211522795Y-50618400D01*
X211882005Y-50618400D01*
X212682613Y-51419008D01*
X212924797Y-51349543D01*
X213111544Y-50826098D01*
X213083762Y-50271032D01*
X212924797Y-49887257D01*
X212682613Y-49817792D01*
X211882005Y-50618400D01*
X211522795Y-50618400D01*
X210722187Y-49817792D01*
X210480003Y-49887257D01*
X210293256Y-50410702D01*
X207199313Y-50410702D01*
X206976870Y-50187871D01*
X206463600Y-49974743D01*
X205907839Y-49974258D01*
X205394197Y-50186490D01*
X205000871Y-50579130D01*
X204914551Y-50787012D01*
X204829510Y-50581197D01*
X204436870Y-50187871D01*
X203923600Y-49974743D01*
X203367839Y-49974258D01*
X202854197Y-50186490D01*
X202460871Y-50579130D01*
X202374551Y-50787012D01*
X202289510Y-50581197D01*
X201896870Y-50187871D01*
X201383600Y-49974743D01*
X200827839Y-49974258D01*
X200314197Y-50186490D01*
X199920871Y-50579130D01*
X199834551Y-50787012D01*
X199749510Y-50581197D01*
X199356870Y-50187871D01*
X198843600Y-49974743D01*
X198287839Y-49974258D01*
X197774197Y-50186490D01*
X197380871Y-50579130D01*
X197294551Y-50787012D01*
X197209510Y-50581197D01*
X196816870Y-50187871D01*
X196303600Y-49974743D01*
X195747839Y-49974258D01*
X195234197Y-50186490D01*
X194840871Y-50579130D01*
X194754551Y-50787012D01*
X194669510Y-50581197D01*
X194276870Y-50187871D01*
X193763600Y-49974743D01*
X193207839Y-49974258D01*
X192694197Y-50186490D01*
X192300871Y-50579130D01*
X192214551Y-50787012D01*
X192129510Y-50581197D01*
X191736870Y-50187871D01*
X191223600Y-49974743D01*
X190667839Y-49974258D01*
X190154197Y-50186490D01*
X189760871Y-50579130D01*
X189674551Y-50787012D01*
X189589510Y-50581197D01*
X189196870Y-50187871D01*
X188683600Y-49974743D01*
X188577501Y-49974650D01*
X188577662Y-49789333D01*
X188515210Y-49638187D01*
X210901792Y-49638187D01*
X211702400Y-50438795D01*
X212503008Y-49638187D01*
X212433543Y-49396003D01*
X211910098Y-49209256D01*
X211355032Y-49237038D01*
X210971257Y-49396003D01*
X210901792Y-49638187D01*
X188515210Y-49638187D01*
X188435617Y-49445557D01*
X188172827Y-49182308D01*
X187829299Y-49039662D01*
X187457333Y-49039338D01*
X187113557Y-49181383D01*
X186850308Y-49444173D01*
X186764587Y-49650611D01*
X184946099Y-51469099D01*
X184781352Y-51715661D01*
X184723500Y-52006500D01*
X176668500Y-52006500D01*
X176668500Y-43346572D01*
X178987338Y-43346572D01*
X179392509Y-44327161D01*
X180142093Y-45078055D01*
X181121973Y-45484936D01*
X182182972Y-45485862D01*
X183163561Y-45080691D01*
X183914455Y-44331107D01*
X184321336Y-43351227D01*
X184322262Y-42290228D01*
X183917091Y-41309639D01*
X183167507Y-40558745D01*
X182187627Y-40151864D01*
X181126628Y-40150938D01*
X180146039Y-40556109D01*
X179395145Y-41305693D01*
X178988264Y-42285573D01*
X178987338Y-43346572D01*
X176668500Y-43346572D01*
X176668500Y-37984500D01*
X187177118Y-37984500D01*
X187007743Y-38392400D01*
M02*
