M48
;DRILL file {KiCad 4.0.6} date Tuesday, 22. January 2019 19:49:37
;FORMAT={-:-/ absolute / inch / decimal}
FMAT,2
INCH,TZ
T1C0.016
T2C0.020
T3C0.030
T4C0.120
%
G90
G05
M72
T1
X7.3875Y-1.9675
X7.49Y-2.184
X7.548Y-2.634
X7.796Y-2.712
X7.8Y-2.788
X7.9754Y-2.6274
X7.976Y-2.476
X7.992Y-2.398
X8.0625Y-1.56
X8.258Y-2.124
X8.394Y-2.288
T2
X7.34Y-2.758
X7.618Y-1.572
X7.674Y-1.568
X7.818Y-1.582
X7.84Y-3.078
X7.8725Y-1.755
X7.886Y-1.564
X7.96Y-2.882
X8.152Y-1.634
X8.446Y-1.872
X8.512Y-2.039
T3
X7.1773Y-2.1976
X7.1773Y-2.3944
X8.3347Y-1.9929
X8.3347Y-2.5991
T4
X7.1518Y-1.6858
X7.1518Y-2.9062
X8.3722Y-1.6858
X8.3722Y-2.9062
T0
M30
