G04 #@! TF.FileFunction,Soldermask,Bot*
%FSLAX46Y46*%
G04 Gerber Fmt 4.6, Leading zero omitted, Abs format (unit mm)*
G04 Created by KiCad (PCBNEW 4.0.6) date Sunday, 03. June 2018 14:30:46*
%MOMM*%
%LPD*%
G01*
G04 APERTURE LIST*
%ADD10C,0.100000*%
%ADD11C,1.924000*%
%ADD12R,1.400000X1.650000*%
%ADD13R,4.200000X2.400000*%
%ADD14R,1.900000X2.400000*%
%ADD15R,2.900000X1.500000*%
%ADD16R,1.500000X2.900000*%
%ADD17C,4.464000*%
%ADD18R,5.400000X2.900000*%
G04 APERTURE END LIST*
D10*
D11*
X188404500Y-38671500D03*
X190944500Y-38671500D03*
X193484500Y-38671500D03*
X196024500Y-38671500D03*
X198564500Y-38671500D03*
X201104500Y-38671500D03*
X203644500Y-38671500D03*
X206184500Y-38671500D03*
X206184500Y-38671500D03*
X206184500Y-51371500D03*
X203644500Y-38671500D03*
X203644500Y-51371500D03*
X201104500Y-38671500D03*
X201104500Y-51371500D03*
X198564500Y-38671500D03*
X198564500Y-51371500D03*
X196024500Y-38671500D03*
X196024500Y-51371500D03*
X193484500Y-38671500D03*
X193484500Y-51371500D03*
X190944500Y-38671500D03*
X190944500Y-51371500D03*
X188404500Y-38671500D03*
X188404500Y-51371500D03*
D12*
X214188800Y-53949600D03*
X216188800Y-53949600D03*
X210531200Y-53949600D03*
X212531200Y-53949600D03*
D13*
X213207600Y-63094000D03*
D14*
X213207600Y-56794000D03*
X215507600Y-56794000D03*
X210907600Y-56794000D03*
D15*
X189546000Y-70866000D03*
X189546000Y-68866000D03*
X189546000Y-66866000D03*
X189546000Y-64866000D03*
X189546000Y-62866000D03*
X189546000Y-60866000D03*
X189546000Y-58866000D03*
X189546000Y-56866000D03*
X204946000Y-56866000D03*
X204946000Y-58866000D03*
X204946000Y-60866000D03*
X204946000Y-62866000D03*
X204946000Y-64866000D03*
X204946000Y-66866000D03*
X204946000Y-68866000D03*
X204946000Y-70866000D03*
D16*
X192236000Y-55166000D03*
X194236000Y-55166000D03*
X196236000Y-55166000D03*
X198236000Y-55166000D03*
X200236000Y-55166000D03*
X202236000Y-55166000D03*
D17*
X181654800Y-42818400D03*
X212654800Y-42818400D03*
X181654800Y-73818400D03*
X212654800Y-73818400D03*
D11*
X182302400Y-55818400D03*
X182302400Y-60818400D03*
X211702400Y-50618400D03*
X211702400Y-66018400D03*
D18*
X178612800Y-55676800D03*
X178612800Y-60756800D03*
M02*
