G04 #@! TF.FileFunction,Legend,Top*
%FSLAX46Y46*%
G04 Gerber Fmt 4.6, Leading zero omitted, Abs format (unit mm)*
G04 Created by KiCad (PCBNEW 4.0.6) date Tuesday, 22. January 2019 19:52:39*
%MOMM*%
%LPD*%
G01*
G04 APERTURE LIST*
%ADD10C,0.100000*%
%ADD11C,0.120000*%
%ADD12C,0.150000*%
G04 APERTURE END LIST*
D10*
D11*
X207881200Y-72616400D02*
X207881200Y-75516400D01*
X207431200Y-72166400D02*
X207881200Y-72616400D01*
X204181200Y-71366400D02*
X206181200Y-71366400D01*
X202481200Y-72616400D02*
X202931200Y-72166400D01*
X202481200Y-75516400D02*
X202481200Y-72616400D01*
X202931200Y-75966400D02*
X202481200Y-75516400D01*
X206181200Y-76766400D02*
X204181200Y-76766400D01*
X207881200Y-75516400D02*
X207431200Y-75966400D01*
D12*
X176004800Y-37168400D02*
X176004800Y-79468400D01*
X176004800Y-79468400D02*
X218304800Y-79468400D01*
X218304800Y-79468400D02*
X218304800Y-37168400D01*
X218304800Y-37168400D02*
X176004800Y-37168400D01*
D11*
X186376000Y-77834800D02*
X186376000Y-75174800D01*
X201736000Y-77834800D02*
X201736000Y-75174800D01*
X188466000Y-75174800D02*
X192026000Y-75174800D01*
X193546000Y-75174800D02*
X197106000Y-75174800D01*
X198626000Y-75174800D02*
X201736000Y-75174800D01*
X186376000Y-77834800D02*
X189486000Y-77834800D01*
X186946000Y-75174800D02*
X186946000Y-73654800D01*
X186376000Y-75174800D02*
X186946000Y-75174800D01*
X201166000Y-77834800D02*
X201736000Y-77834800D01*
X191006000Y-77834800D02*
X194566000Y-77834800D01*
X196086000Y-77834800D02*
X199646000Y-77834800D01*
X186325200Y-73008800D02*
X186325200Y-70348800D01*
X194065200Y-73008800D02*
X194065200Y-70348800D01*
X188415200Y-70348800D02*
X191975200Y-70348800D01*
X186325200Y-73008800D02*
X189435200Y-73008800D01*
X186895200Y-70348800D02*
X186895200Y-68828800D01*
X186325200Y-70348800D02*
X186895200Y-70348800D01*
X193495200Y-73008800D02*
X194065200Y-73008800D01*
X190955200Y-73008800D02*
X194065200Y-73008800D01*
D12*
X180002400Y-48218400D02*
X214002400Y-48218400D01*
X214002400Y-48218400D02*
X214002400Y-68418400D01*
X214002400Y-68418400D02*
X180002400Y-68418400D01*
X180002400Y-68418400D02*
X180002400Y-48218400D01*
D11*
X201584000Y-40623600D02*
X202784000Y-40623600D01*
X202784000Y-42383600D02*
X201584000Y-42383600D01*
X204682800Y-40623600D02*
X205882800Y-40623600D01*
X205882800Y-42383600D02*
X204682800Y-42383600D01*
D12*
X205910000Y-47787000D02*
X205910000Y-47737000D01*
X201760000Y-47787000D02*
X201760000Y-47642000D01*
X201760000Y-42637000D02*
X201760000Y-42782000D01*
X205910000Y-42637000D02*
X205910000Y-42782000D01*
X205910000Y-47787000D02*
X201760000Y-47787000D01*
X205910000Y-42637000D02*
X201760000Y-42637000D01*
X205910000Y-47737000D02*
X207310000Y-47737000D01*
D11*
X209769000Y-47920800D02*
X208569000Y-47920800D01*
X208569000Y-46160800D02*
X209769000Y-46160800D01*
X212047200Y-47890800D02*
X213047200Y-47890800D01*
X213047200Y-46190800D02*
X212047200Y-46190800D01*
X201971800Y-70799400D02*
X201971800Y-71999400D01*
X200211800Y-71999400D02*
X200211800Y-70799400D01*
D12*
X197916800Y-42773600D02*
X197916800Y-40233600D01*
X197916800Y-40233600D02*
X187756800Y-40233600D01*
X187756800Y-40233600D02*
X187756800Y-42773600D01*
X187756800Y-42773600D02*
X197916800Y-42773600D01*
X209185962Y-75399733D02*
X209233581Y-75256876D01*
X209233581Y-75018780D01*
X209185962Y-74923542D01*
X209138343Y-74875923D01*
X209043105Y-74828304D01*
X208947867Y-74828304D01*
X208852629Y-74875923D01*
X208805010Y-74923542D01*
X208757390Y-75018780D01*
X208709771Y-75209257D01*
X208662152Y-75304495D01*
X208614533Y-75352114D01*
X208519295Y-75399733D01*
X208424057Y-75399733D01*
X208328819Y-75352114D01*
X208281200Y-75304495D01*
X208233581Y-75209257D01*
X208233581Y-74971161D01*
X208281200Y-74828304D01*
X208233581Y-74494971D02*
X209233581Y-74256876D01*
X208519295Y-74066399D01*
X209233581Y-73875923D01*
X208233581Y-73637828D01*
X208328819Y-73304495D02*
X208281200Y-73256876D01*
X208233581Y-73161638D01*
X208233581Y-72923542D01*
X208281200Y-72828304D01*
X208328819Y-72780685D01*
X208424057Y-72733066D01*
X208519295Y-72733066D01*
X208662152Y-72780685D01*
X209233581Y-73352114D01*
X209233581Y-72733066D01*
X184828381Y-76838133D02*
X185542667Y-76838133D01*
X185685524Y-76885753D01*
X185780762Y-76980991D01*
X185828381Y-77123848D01*
X185828381Y-77219086D01*
X185828381Y-75838133D02*
X185828381Y-76409562D01*
X185828381Y-76123848D02*
X184828381Y-76123848D01*
X184971238Y-76219086D01*
X185066476Y-76314324D01*
X185114095Y-76409562D01*
X184777581Y-72012133D02*
X185491867Y-72012133D01*
X185634724Y-72059753D01*
X185729962Y-72154991D01*
X185777581Y-72297848D01*
X185777581Y-72393086D01*
X184872819Y-71583562D02*
X184825200Y-71535943D01*
X184777581Y-71440705D01*
X184777581Y-71202609D01*
X184825200Y-71107371D01*
X184872819Y-71059752D01*
X184968057Y-71012133D01*
X185063295Y-71012133D01*
X185206152Y-71059752D01*
X185777581Y-71631181D01*
X185777581Y-71012133D01*
X178117595Y-67714881D02*
X178117595Y-68524405D01*
X178165214Y-68619643D01*
X178212833Y-68667262D01*
X178308071Y-68714881D01*
X178498548Y-68714881D01*
X178593786Y-68667262D01*
X178641405Y-68619643D01*
X178689024Y-68524405D01*
X178689024Y-67714881D01*
X179641405Y-67714881D02*
X179165214Y-67714881D01*
X179117595Y-68191071D01*
X179165214Y-68143452D01*
X179260452Y-68095833D01*
X179498548Y-68095833D01*
X179593786Y-68143452D01*
X179641405Y-68191071D01*
X179689024Y-68286310D01*
X179689024Y-68524405D01*
X179641405Y-68619643D01*
X179593786Y-68667262D01*
X179498548Y-68714881D01*
X179260452Y-68714881D01*
X179165214Y-68667262D01*
X179117595Y-68619643D01*
X202068134Y-40711381D02*
X201734800Y-40235190D01*
X201496705Y-40711381D02*
X201496705Y-39711381D01*
X201877658Y-39711381D01*
X201972896Y-39759000D01*
X202020515Y-39806619D01*
X202068134Y-39901857D01*
X202068134Y-40044714D01*
X202020515Y-40139952D01*
X201972896Y-40187571D01*
X201877658Y-40235190D01*
X201496705Y-40235190D01*
X203020515Y-40711381D02*
X202449086Y-40711381D01*
X202734800Y-40711381D02*
X202734800Y-39711381D01*
X202639562Y-39854238D01*
X202544324Y-39949476D01*
X202449086Y-39997095D01*
X205065334Y-40711381D02*
X204732000Y-40235190D01*
X204493905Y-40711381D02*
X204493905Y-39711381D01*
X204874858Y-39711381D01*
X204970096Y-39759000D01*
X205017715Y-39806619D01*
X205065334Y-39901857D01*
X205065334Y-40044714D01*
X205017715Y-40139952D01*
X204970096Y-40187571D01*
X204874858Y-40235190D01*
X204493905Y-40235190D01*
X205446286Y-39806619D02*
X205493905Y-39759000D01*
X205589143Y-39711381D01*
X205827239Y-39711381D01*
X205922477Y-39759000D01*
X205970096Y-39806619D01*
X206017715Y-39901857D01*
X206017715Y-39997095D01*
X205970096Y-40139952D01*
X205398667Y-40711381D01*
X206017715Y-40711381D01*
X207645095Y-43064181D02*
X207645095Y-43873705D01*
X207692714Y-43968943D01*
X207740333Y-44016562D01*
X207835571Y-44064181D01*
X208026048Y-44064181D01*
X208121286Y-44016562D01*
X208168905Y-43968943D01*
X208216524Y-43873705D01*
X208216524Y-43064181D01*
X208645095Y-43159419D02*
X208692714Y-43111800D01*
X208787952Y-43064181D01*
X209026048Y-43064181D01*
X209121286Y-43111800D01*
X209168905Y-43159419D01*
X209216524Y-43254657D01*
X209216524Y-43349895D01*
X209168905Y-43492752D01*
X208597476Y-44064181D01*
X209216524Y-44064181D01*
X209002334Y-45969181D02*
X208669000Y-45492990D01*
X208430905Y-45969181D02*
X208430905Y-44969181D01*
X208811858Y-44969181D01*
X208907096Y-45016800D01*
X208954715Y-45064419D01*
X209002334Y-45159657D01*
X209002334Y-45302514D01*
X208954715Y-45397752D01*
X208907096Y-45445371D01*
X208811858Y-45492990D01*
X208430905Y-45492990D01*
X209335667Y-44969181D02*
X209954715Y-44969181D01*
X209621381Y-45350133D01*
X209764239Y-45350133D01*
X209859477Y-45397752D01*
X209907096Y-45445371D01*
X209954715Y-45540610D01*
X209954715Y-45778705D01*
X209907096Y-45873943D01*
X209859477Y-45921562D01*
X209764239Y-45969181D01*
X209478524Y-45969181D01*
X209383286Y-45921562D01*
X209335667Y-45873943D01*
X214945934Y-47474143D02*
X214898315Y-47521762D01*
X214755458Y-47569381D01*
X214660220Y-47569381D01*
X214517362Y-47521762D01*
X214422124Y-47426524D01*
X214374505Y-47331286D01*
X214326886Y-47140810D01*
X214326886Y-46997952D01*
X214374505Y-46807476D01*
X214422124Y-46712238D01*
X214517362Y-46617000D01*
X214660220Y-46569381D01*
X214755458Y-46569381D01*
X214898315Y-46617000D01*
X214945934Y-46664619D01*
X215279267Y-46569381D02*
X215898315Y-46569381D01*
X215564981Y-46950333D01*
X215707839Y-46950333D01*
X215803077Y-46997952D01*
X215850696Y-47045571D01*
X215898315Y-47140810D01*
X215898315Y-47378905D01*
X215850696Y-47474143D01*
X215803077Y-47521762D01*
X215707839Y-47569381D01*
X215422124Y-47569381D01*
X215326886Y-47521762D01*
X215279267Y-47474143D01*
X199894181Y-71566066D02*
X199417990Y-71899400D01*
X199894181Y-72137495D02*
X198894181Y-72137495D01*
X198894181Y-71756542D01*
X198941800Y-71661304D01*
X198989419Y-71613685D01*
X199084657Y-71566066D01*
X199227514Y-71566066D01*
X199322752Y-71613685D01*
X199370371Y-71661304D01*
X199417990Y-71756542D01*
X199417990Y-72137495D01*
X199227514Y-70708923D02*
X199894181Y-70708923D01*
X198846562Y-70947019D02*
X199560848Y-71185114D01*
X199560848Y-70566066D01*
X198429181Y-44376933D02*
X199143467Y-44376933D01*
X199286324Y-44424553D01*
X199381562Y-44519791D01*
X199429181Y-44662648D01*
X199429181Y-44757886D01*
X198429181Y-43424552D02*
X198429181Y-43900743D01*
X198905371Y-43948362D01*
X198857752Y-43900743D01*
X198810133Y-43805505D01*
X198810133Y-43567409D01*
X198857752Y-43472171D01*
X198905371Y-43424552D01*
X199000610Y-43376933D01*
X199238705Y-43376933D01*
X199333943Y-43424552D01*
X199381562Y-43472171D01*
X199429181Y-43567409D01*
X199429181Y-43805505D01*
X199381562Y-43900743D01*
X199333943Y-43948362D01*
M02*
