G04 #@! TF.FileFunction,Soldermask,Top*
%FSLAX46Y46*%
G04 Gerber Fmt 4.6, Leading zero omitted, Abs format (unit mm)*
G04 Created by KiCad (PCBNEW 4.0.6) date Tuesday, 22. January 2019 19:52:39*
%MOMM*%
%LPD*%
G01*
G04 APERTURE LIST*
%ADD10C,0.100000*%
%ADD11R,1.500000X2.200000*%
%ADD12C,4.464000*%
%ADD13R,1.400000X2.910000*%
%ADD14C,1.924000*%
%ADD15R,1.100000X1.700000*%
%ADD16R,1.950000X1.000000*%
%ADD17R,1.400000X1.650000*%
%ADD18R,1.700000X1.100000*%
G04 APERTURE END LIST*
D10*
D11*
X207031200Y-70966400D03*
X207031200Y-77166400D03*
X203331200Y-70966400D03*
X203331200Y-77166400D03*
D12*
X181654800Y-42818400D03*
X212654800Y-42818400D03*
X181654800Y-73818400D03*
X212654800Y-73818400D03*
D13*
X190246000Y-78159800D03*
X195326000Y-78159800D03*
X200406000Y-78159800D03*
X187706000Y-74849800D03*
X192786000Y-74849800D03*
X197866000Y-74849800D03*
X190195200Y-73333800D03*
X187655200Y-70023800D03*
X192735200Y-70023800D03*
D14*
X182302400Y-55818400D03*
X182302400Y-60818400D03*
X211702400Y-50618400D03*
X211702400Y-66018400D03*
D15*
X203134000Y-41503600D03*
X201234000Y-41503600D03*
X206232800Y-41503600D03*
X204332800Y-41503600D03*
D16*
X206535000Y-47117000D03*
X206535000Y-45847000D03*
X206535000Y-44577000D03*
X206535000Y-43307000D03*
X201135000Y-43307000D03*
X201135000Y-44577000D03*
X201135000Y-45847000D03*
X201135000Y-47117000D03*
D15*
X208219000Y-47040800D03*
X210119000Y-47040800D03*
D17*
X213547200Y-47040800D03*
X211547200Y-47040800D03*
D18*
X201091800Y-72349400D03*
X201091800Y-70449400D03*
D13*
X194106800Y-46583600D03*
X189026800Y-46583600D03*
X196646800Y-46583600D03*
X191566800Y-46583600D03*
M02*
